<?xml version="1.0" encoding="UTF-8"?>
<svg version="1.1" xmlns="http://www.w3.org/2000/svg" width="5000" height="3626">
<path d="M0 0 C1.28687462 -0.0049926 1.28687462 -0.0049926 2.5997467 -0.01008606 C4.37956217 -0.01505521 6.15938659 -0.01749759 7.93920898 -0.01733398 C10.59309799 -0.01952748 13.24657396 -0.03781229 15.90039062 -0.05664062 C31.51160981 -0.10899829 47.34119342 0.54327254 62.53515625 4.41796875 C63.83718994 4.74112061 63.83718994 4.74112061 65.16552734 5.07080078 C81.80711104 9.38460022 95.27524881 17.29642535 107.66015625 29.16796875 C108.25183594 29.70808594 108.84351563 30.24820313 109.453125 30.8046875 C134.94172613 54.84025673 152.69960907 89.49457327 170.27659607 119.42619324 C174.35707283 126.36860133 178.50641228 133.26922937 182.66015625 140.16796875 C183.60552488 141.73954957 184.55084663 143.3111586 185.49609375 144.8828125 C185.91012451 145.57117188 186.32415527 146.25953125 186.75073242 146.96875 C190.87290556 153.82624083 194.97675408 160.69424388 199.0546875 167.578125 C199.44143646 168.23091934 199.82818542 168.88371368 200.22665405 169.55628967 C200.81635483 170.55165993 200.81635483 170.55165993 201.41796875 171.56713867 C208.74615105 183.936221 216.12327214 196.27176538 223.60507202 208.54858398 C228.71294119 216.93166192 233.74502487 225.35453485 238.71728516 233.81860352 C243.04378143 241.1661762 247.47009165 248.45124731 251.91015625 255.73046875 C257.75880242 265.32014085 263.50293472 274.96419218 269.16015625 284.66796875 C275.03244547 294.73946886 281.00713828 304.74061188 287.07983398 314.69247437 C293.80019561 325.70864188 300.40500669 336.79113142 306.97802734 347.89575195 C307.72621395 349.1596816 308.47442334 350.42359776 309.22265625 351.6875 C309.59000885 352.30810303 309.95736145 352.92870605 310.33584595 353.56811523 C312.92853375 357.94405591 315.53986912 362.30850718 318.16015625 366.66796875 C321.15574257 371.65182847 324.13570084 376.64451445 327.09765625 381.6484375 C327.46596558 382.27059647 327.8342749 382.89275543 328.21374512 383.5337677 C328.97104109 384.81311316 329.72832445 386.09246608 330.4855957 387.37182617 C336.98150333 398.34236233 343.52445851 409.28141184 350.16015625 420.16796875 C357.57605207 432.33506858 364.863648 444.57551677 372.12606812 456.8347168 C372.51501251 457.49125244 372.90395691 458.14778809 373.3046875 458.82421875 C373.68710602 459.46979736 374.06952454 460.11537598 374.46353149 460.78051758 C377.51016349 465.92108181 380.57851589 471.04831064 383.66015625 476.16796875 C387.1326938 481.93704071 390.5838246 487.71834447 394.015625 493.51171875 C394.40497726 494.16893417 394.79432953 494.8261496 395.19548035 495.50328064 C395.59189224 496.17242996 395.98830414 496.84157928 396.39672852 497.53100586 C403.79840369 510.02499803 411.25116751 522.48420774 418.80722046 534.88549805 C423.19736363 542.09155567 427.54196074 549.31816311 431.79101562 556.6081543 C435.32973413 562.65639934 438.97761381 568.63716934 442.62597656 574.61962891 C449.2663956 585.50861525 455.79084577 596.45668192 462.21368408 607.4753418 C468.28554437 617.88625361 474.50236238 628.20268919 480.77734375 638.4921875 C484.84385785 645.16233309 488.85687065 651.85818455 492.79052734 658.60742188 C496.32952765 664.65584179 499.97746062 670.63691814 503.62597656 676.61962891 C509.90311133 686.91290021 516.08834609 697.25220771 522.16015625 707.66796875 C528.03234905 717.73952399 534.0071395 727.74061389 540.07983398 737.69247437 C546.80019561 748.70864188 553.40500669 759.79113142 559.97802734 770.89575195 C560.72621395 772.1596816 561.47442334 773.42359776 562.22265625 774.6875 C562.59000885 775.30810303 562.95736145 775.92870605 563.33584595 776.56811523 C565.92853375 780.94405591 568.53986912 785.30850718 571.16015625 789.66796875 C574.15574259 794.65182849 577.1356972 799.6445166 580.09765625 804.6484375 C580.46637344 805.27127625 580.83509064 805.89411499 581.21498108 806.53582764 C581.97269136 807.81585837 582.73038668 809.09589795 583.48806763 810.37594604 C590.51987966 822.25186677 597.61742754 834.08470441 604.79833984 845.87103271 C609.76434259 854.02305873 614.66352579 862.20843284 619.48046875 870.44921875 C622.75207113 876.04438584 626.10148537 881.59273929 629.44433594 887.14550781 C630.72999908 889.28414907 632.01186101 891.42503327 633.29296875 893.56640625 C637.70824693 900.94284286 642.1335713 908.31241404 646.609375 915.65234375 C654.73536984 928.97911849 662.74773303 942.36247059 670.61791992 955.84204102 C676.12986984 965.28105475 681.72244015 974.66910681 687.36962891 984.02783203 C689.36806503 987.34192418 691.35770301 990.66127877 693.34765625 993.98046875 C694.07807753 995.19794515 694.80854547 996.41539355 695.5390625 997.6328125 C696.921875 999.9375 698.3046875 1002.2421875 699.6875 1004.546875 C700.02869873 1005.1155127 700.36989746 1005.68415039 700.72143555 1006.27001953 C701.4430478 1007.47276182 702.16456149 1008.67556325 702.88598633 1009.87841797 C705.21983611 1013.76930902 707.55628509 1017.65862419 709.89453125 1021.546875 C715.36909058 1030.65535723 720.83667727 1039.76745493 726.25390625 1048.91015625 C726.64425049 1049.56894272 727.03459473 1050.22772919 727.43676758 1050.90647888 C728.23423406 1052.2525302 729.03167858 1053.59859454 729.82910156 1054.94467163 C736.68686441 1066.52044343 743.60295687 1078.0571827 750.60388184 1089.54693604 C755.75652705 1098.0051246 760.84010261 1106.49994414 765.86230469 1115.03613281 C769.80075303 1121.72686726 773.78370712 1128.38974046 777.78515625 1135.04296875 C783.16451512 1143.98752086 788.50418788 1152.95450228 793.82342529 1161.93487549 C800.2097417 1172.71598637 806.63825089 1183.46830252 813.16015625 1194.16796875 C819.18123424 1204.04784067 825.13450851 1213.96568533 831.03515625 1223.91796875 C831.4299115 1224.58372925 831.82466675 1225.24948975 832.23138428 1225.9354248 C835.4462216 1231.35863012 838.65738093 1236.78401094 841.8684082 1242.20947266 C844.67228621 1246.94664921 847.47762804 1251.68295452 850.28515625 1256.41796875 C850.67807861 1257.08072815 851.07100098 1257.74348755 851.47583008 1258.42633057 C857.45495657 1268.50649303 863.50696015 1278.5402497 869.60498047 1288.54885864 C874.75727104 1297.00640063 879.84047611 1305.50057897 884.86230469 1314.03613281 C888.80075303 1320.72686726 892.78370712 1327.38974046 896.78515625 1334.04296875 C902.16506527 1342.98843562 907.50528413 1351.9563349 912.82507324 1360.93762207 C919.68159522 1372.5127149 926.5970967 1384.04842578 933.59783936 1395.53686523 C939.92564395 1405.92302569 946.12928968 1416.378134 952.29785156 1426.859375 C954.19557128 1430.07529572 956.1113386 1433.28010761 958.03515625 1436.48046875 C958.55746826 1437.34937744 958.55746826 1437.34937744 959.09033203 1438.23583984 C959.84648083 1439.49295818 960.6028398 1440.74995011 961.359375 1442.00683594 C970.48067824 1457.16107322 979.55506571 1472.34192451 988.57800293 1487.55487061 C994.8257721 1498.08818871 1001.1005695 1508.60463565 1007.41503906 1519.09814453 C1009.33293866 1522.28637057 1011.24640986 1525.47724873 1013.16015625 1528.66796875 C1013.69793701 1529.56394775 1013.69793701 1529.56394775 1014.24658203 1530.47802734 C1016.26178845 1533.83551315 1018.27465479 1537.19438197 1020.28515625 1540.5546875 C1024.70364673 1547.93466146 1029.13113182 1555.30841351 1033.609375 1562.65234375 C1041.3005519 1575.2659281 1048.90296701 1587.92245661 1056.35101318 1600.68133545 C1063.13137964 1612.29586289 1070.02675857 1623.8383714 1076.96826172 1635.35742188 C1078.53731244 1637.96390267 1080.10194829 1640.57295139 1081.6640625 1643.18359375 C1085.94770874 1650.34139097 1090.2430752 1657.49119612 1094.5859375 1664.61328125 C1101.87850036 1676.57424101 1109.10365355 1688.56593126 1116.16015625 1700.66796875 C1121.69570295 1710.16151795 1127.31136815 1719.59917972 1133.03515625 1728.98046875 C1139.09943058 1738.92207467 1145.09696988 1748.90050256 1151.03515625 1758.91796875 C1151.42973022 1759.58345734 1151.8243042 1760.24894592 1152.23083496 1760.93460083 C1155.44585383 1766.35808179 1158.65721301 1771.78372722 1161.8684082 1777.20947266 C1164.67228623 1781.94664924 1167.47769985 1786.68291193 1170.28515625 1791.41796875 C1170.67940796 1792.0830545 1171.07365967 1792.74814026 1171.4798584 1793.43338013 C1177.36392075 1803.35478248 1183.32445823 1813.22700039 1189.33343506 1823.07315063 C1195.16736267 1832.63774564 1200.85209558 1842.283629 1206.49273682 1851.96322632 C1210.94452377 1859.59809534 1215.46914172 1867.17676581 1220.16015625 1874.66796875 C1225.2318573 1882.76709988 1230.09953451 1890.97486055 1234.91015625 1899.23046875 C1240.65004173 1909.08062998 1246.47289197 1918.87293898 1252.41015625 1928.60546875 C1257.91805166 1937.63471626 1263.35962765 1946.69824832 1268.71679688 1955.81787109 C1273.04355739 1963.16562808 1277.46993874 1970.45099664 1281.91015625 1977.73046875 C1287.7588064 1987.32014738 1293.50266574 1996.96434386 1299.16015625 2006.66796875 C1304.94988945 2016.59555452 1310.81864344 2026.4705193 1316.78515625 2036.29296875 C1317.30734741 2037.15378052 1317.30734741 2037.15378052 1317.84008789 2038.03198242 C1322.3556559 2045.47046395 1326.97775839 2052.83357886 1331.66015625 2060.16796875 C1332.8644075 2059.87776855 1334.06865875 2059.58756836 1335.30940247 2059.28857422 C1438.53786921 2034.41340829 1438.53786921 2034.41340829 1475.47265625 2025.60546875 C1476.44545973 2025.37347338 1476.44545973 2025.37347338 1477.4379158 2025.13679123 C1483.26877076 2023.74629669 1489.09969693 2022.35610084 1494.93067932 2020.96614075 C1509.84296032 2017.41064126 1524.75165219 2013.84016025 1539.66027069 2010.26934052 C1541.90699047 2009.73122699 1544.1537195 2009.19315216 1546.40045166 2008.65509033 C1554.61441345 2006.68795258 1562.82832666 2004.72061207 1571.04220963 2002.75314522 C1583.92114441 1999.66826817 1596.8001774 1996.58380129 1609.67930222 1993.49971771 C1611.8564466 1992.97836375 1614.03358555 1992.45698715 1616.21072388 1991.93560791 C1634.16169575 1987.63680473 1652.11354398 1983.34168303 1670.06640625 1979.05078125 C1677.66017123 1977.23573975 1685.25392423 1975.42064813 1692.84765625 1973.60546875 C1693.80613338 1973.37635929 1694.76461052 1973.14724983 1695.75213242 1972.91119766 C1728.44621018 1965.09594184 1761.13477048 1957.25786291 1793.82079697 1949.40900803 C1826.63838314 1941.52861309 1859.46038266 1933.66692673 1892.28683472 1925.82354736 C1914.47809223 1920.52118519 1936.66697318 1915.20910559 1958.8515625 1909.87890625 C1961.06244401 1909.34774256 1963.27332557 1908.81657903 1965.48420715 1908.28541565 C1969.88391639 1907.22835438 1974.28361958 1906.171268 1978.68331909 1905.11416626 C1979.76439312 1904.85442142 1980.84546715 1904.59467659 1981.95930099 1904.3270607 C1984.13105171 1903.80525044 1986.30279703 1903.28341774 1988.4745369 1902.76156235 C2013.64513033 1896.71339112 2038.81905313 1890.68480428 2064.02749634 1884.79605103 C2076.82079445 1881.80579979 2089.59230618 1878.73615853 2102.34887695 1875.59277344 C2103.45668015 1875.31999573 2104.56448334 1875.04721802 2105.70585632 1874.76617432 C2108.03694002 1874.192184 2110.36783977 1873.61746208 2112.6985569 1873.04198456 C2128.12052621 1869.23539082 2143.55960873 1865.51224836 2159.02339745 1861.87941551 C2179.07738771 1857.16607579 2199.11654377 1852.39346681 2219.140625 1847.5546875 C2220.26827082 1847.28223331 2221.39591663 1847.00977913 2222.55773354 1846.72906876 C2228.30314588 1845.34064654 2234.04834198 1843.9513319 2239.79342651 1842.56155396 C2276.1241999 1833.77357892 2312.45826948 1825.00437155 2348.8659668 1816.53979492 C2364.22560846 1812.96182623 2379.54826456 1809.24825997 2394.86328125 1805.484375 C2411.72624596 1801.34030949 2428.59982548 1797.24528197 2445.4921875 1793.22265625 C2446.53105606 1792.97526136 2447.56992462 1792.72786648 2448.64027405 1792.47297478 C2454.01368786 1791.19378706 2459.387396 1789.91584069 2464.76126099 1788.6385498 C2476.60890005 1785.82238271 2488.45491388 1782.99939001 2500.30078125 1780.17578125 C2501.51642824 1779.88604431 2502.73207523 1779.59630737 2503.98456001 1779.29779053 C2529.78135982 1773.14831492 2555.56543531 1766.94640217 2581.34660339 1760.73176575 C2591.40928646 1758.30615762 2601.47217037 1755.88138278 2611.53515625 1753.45703125 C2612.62565025 1753.19430923 2613.71614426 1752.93158722 2614.83968353 1752.66090393 C2638.96215468 1746.84992918 2663.09060204 1741.06401014 2687.22265625 1735.29296875 C2688.66566479 1734.9478657 2688.66566479 1734.9478657 2690.13782501 1734.59579086 C2715.10393467 1728.62566286 2740.07632274 1722.68404553 2765.0703125 1716.83154297 C2773.41093413 1714.87808016 2781.74893028 1712.91640115 2790.07421875 1710.8984375 C2790.78866653 1710.72526505 2791.50311432 1710.55209259 2792.23921204 1710.37367249 C2795.42092881 1709.60130505 2798.6015429 1708.82482632 2801.78100586 1708.04321289 C2802.81491455 1707.79047607 2803.84882324 1707.53773926 2804.9140625 1707.27734375 C2805.79392822 1707.06045898 2806.67379395 1706.84357422 2807.58032227 1706.62011719 C2809.66015625 1706.16796875 2809.66015625 1706.16796875 2811.66015625 1706.16796875 C2805.36818386 1696.91262286 2799.07380095 1687.6637752 2792.53491211 1678.58056641 C2788.92469298 1673.55946531 2785.38482878 1668.49071413 2781.84765625 1663.41796875 C2777.28191894 1656.87378661 2772.66291102 1650.37346359 2767.97265625 1643.91796875 C2763.48894677 1637.74606097 2759.11863885 1631.51031874 2754.82348633 1625.20605469 C2751.35324984 1620.13084167 2747.7752313 1615.14081847 2744.16015625 1610.16796875 C2739.61325966 1603.91331757 2735.17780942 1597.59738949 2730.82421875 1591.20703125 C2727.3536374 1586.13155679 2723.77537788 1581.14121934 2720.16015625 1576.16796875 C2715.59497334 1569.88589614 2711.13098492 1563.54734474 2706.75170898 1557.13452148 C2701.97308314 1550.14252814 2697.08102822 1543.23237006 2692.18505859 1536.32226562 C2690.64944947 1534.15284281 2689.117125 1531.98113924 2687.5859375 1529.80859375 C2682.96235591 1523.2484953 2678.33114742 1516.69441788 2673.66015625 1510.16796875 C2666.79730936 1500.57673516 2659.99069773 1490.94547631 2653.2421875 1481.2734375 C2647.54562521 1473.1100851 2641.82282466 1464.97219464 2635.97265625 1456.91796875 C2631.47074238 1450.71854548 2627.07172819 1444.4603598 2622.75097656 1438.13354492 C2617.96976609 1431.13743263 2613.07491734 1424.22324549 2608.17626953 1417.30908203 C2605.66671702 1413.76499579 2603.16375407 1410.21626265 2600.66015625 1406.66796875 C2599.66018821 1405.25127953 2598.6601882 1403.83461287 2597.66015625 1402.41796875 C2507.66015625 1274.91796875 2507.66015625 1274.91796875 2506.16040039 1272.79321289 C2505.15971437 1271.37564221 2504.15890042 1269.95816183 2503.15795898 1268.54077148 C2500.66740174 1265.01366303 2498.17904033 1261.48504658 2495.6953125 1257.953125 C2490.54480178 1250.63433481 2485.35420271 1243.34854591 2480.09765625 1236.10546875 C2475.55572943 1229.84301328 2471.11425611 1223.52259376 2466.75146484 1217.13427734 C2461.96894885 1210.13619115 2457.07219283 1203.22056022 2452.171875 1196.3046875 C2450.67481552 1194.1886887 2449.18232438 1192.06954823 2447.69140625 1189.94921875 C2442.58613018 1182.69236141 2437.4386461 1175.47071432 2432.22265625 1168.29296875 C2427.19637065 1161.37104686 2422.33811671 1154.34859329 2417.53320312 1147.27172852 C2413.33249635 1141.10367393 2408.99691799 1135.04481652 2404.60766602 1129.01000977 C2398.74527465 1120.93811696 2393.04851882 1112.75254012 2387.34033203 1104.57128906 C2383.29053201 1098.77846264 2379.20400257 1093.0114731 2375.12353516 1087.24023438 C2373.64758785 1085.15017085 2372.17491303 1083.05783786 2370.703125 1080.96484375 C2365.55035084 1073.64190203 2360.35710141 1066.35224669 2355.09765625 1059.10546875 C2350.57461379 1052.87132998 2346.16116265 1046.57501036 2341.82617188 1040.20898438 C2338.33954216 1035.10770703 2334.73415661 1030.10068486 2331.09765625 1025.10546875 C2303.5008981 987.0231627 2303.5008981 987.0231627 2305.66015625 965.16796875 C2306.84861257 959.06205912 2308.78520358 954.09020593 2312.66015625 949.16796875 C2313.20414063 948.46929688 2313.748125 947.770625 2314.30859375 947.05078125 C2337.67438781 918.72571661 2385.69367315 915.98109407 2419.39288712 910.31118393 C2423.12134436 909.68299184 2426.8491068 909.05072265 2430.5769186 908.41871357 C2472.94547081 901.23774686 2515.33895018 894.20324934 2557.7289747 887.15033937 C2564.84538756 885.96628851 2571.96177061 884.78205848 2579.078125 883.59765625 C2580.26636616 883.39989318 2580.26636616 883.39989318 2581.47861218 883.1981349 C2606.07973473 879.10344845 2630.67797955 874.99185583 2655.2734375 870.86328125 C2656.0511971 870.73272756 2656.82895671 870.60217387 2657.63028479 870.467664 C2666.32886928 869.00747121 2675.02736464 867.54674781 2683.72583008 866.08584595 C2770.57448829 851.49974979 2857.43062337 836.95732855 3006.27697372 812.34771729 C3009.56664215 811.80830248 3012.8561689 811.26803161 3016.1456604 810.72753906 C3028.68225845 808.66878113 3041.22194114 806.63049492 3053.76788712 804.62944412 C3055.7510907 804.31301451 3057.73419693 803.99597423 3059.71722031 803.67841721 C3065.98947116 802.67447649 3072.26337558 801.68207254 3078.53981018 800.70461655 C3080.50311909 800.39759642 3082.46595534 800.08753401 3084.42823792 799.77402115 C3120.39857558 794.03927709 3151.45897741 796.54118895 3181.66015625 818.16796875 C3186.56327866 821.89341812 3191.31090004 825.80419239 3196.00537109 829.78808594 C3197.5091003 831.04200708 3199.06100958 832.23757671 3200.6171875 833.42578125 C3201.29136719 834.00070312 3201.96554687 834.575625 3202.66015625 835.16796875 C3202.66015625 835.82796875 3202.66015625 836.48796875 3202.66015625 837.16796875 C3203.18996094 837.37164063 3203.71976563 837.5753125 3204.265625 837.78515625 C3207.70030457 839.76864168 3210.21324771 842.46918461 3212.97265625 845.29296875 C3213.55660156 845.88480957 3214.14054687 846.47665039 3214.7421875 847.08642578 C3218.88643939 851.31277641 3222.83135923 855.65434624 3226.66015625 860.16796875 C3227.63256601 861.27870138 3228.60669756 862.38792773 3229.58203125 863.49609375 C3235.44552274 870.17481129 3241.12942377 876.9360586 3246.56542969 883.96728516 C3249.81041963 888.14394673 3253.19249695 892.17487279 3256.66015625 896.16796875 C3261.66021022 901.92956692 3266.40245472 907.85482592 3271.0859375 913.875 C3274.06734994 917.70414467 3277.14039824 921.4548791 3280.22265625 925.203125 C3287.33206903 933.85063189 3294.40550563 942.5236692 3301.28515625 951.35546875 C3305.31867251 956.53011781 3309.48845449 961.56676474 3313.74658203 966.55761719 C3318.68724465 972.35329237 3323.41996439 978.29794659 3328.10546875 984.30078125 C3333.78624237 991.57558501 3339.5796622 998.7412766 3345.46728516 1005.84985352 C3349.55187235 1010.79232682 3353.53868039 1015.79972232 3357.4765625 1020.859375 C3361.12500725 1025.5289588 3364.88029453 1030.1043776 3368.66015625 1034.66796875 C3372.89655461 1039.7827564 3377.08096845 1044.92686719 3381.16015625 1050.16796875 C3385.89086063 1056.24513829 3390.76802679 1062.19328733 3395.67529297 1068.12841797 C3400.05942483 1073.43170575 3404.37873484 1078.78140032 3408.66015625 1084.16796875 C3409.58024152 1085.31679697 3410.50085668 1086.46520092 3411.421875 1087.61328125 C3415.87804038 1093.16973438 3420.32749251 1098.72967413 3424.7097168 1104.34472656 C3429.85558104 1110.93795398 3435.13349764 1117.40988324 3440.46826172 1123.85107422 C3444.55256067 1128.79310946 3448.53900097 1133.80013423 3452.4765625 1138.859375 C3456.12500725 1143.5289588 3459.88029453 1148.1043776 3463.66015625 1152.66796875 C3468.35309442 1158.33395674 3472.95804513 1164.05368354 3477.4765625 1169.859375 C3481.12500856 1174.52896048 3484.88034567 1179.10433354 3488.66015625 1183.66796875 C3493.37319473 1189.35941338 3498.00468626 1195.10121522 3502.546875 1200.9296875 C3506.02869559 1205.38886123 3509.58261149 1209.78533218 3513.16015625 1214.16796875 C3517.29455832 1219.23338866 3521.38390816 1224.32863347 3525.41015625 1229.48046875 C3529.28708952 1234.43946528 3533.22438634 1239.3409432 3537.22265625 1244.203125 C3544.2841428 1252.792337 3551.31400278 1261.40574557 3558.16015625 1270.16796875 C3564.21953075 1277.92215737 3570.43747956 1285.54464267 3576.66015625 1293.16796875 C3583.34112636 1301.35274456 3589.99385385 1309.55200605 3596.49658203 1317.87939453 C3600.53949726 1323.04444887 3604.67877476 1328.12814009 3608.82641602 1333.20922852 C3612.29909107 1337.47107784 3615.71841931 1341.76927976 3619.09765625 1346.10546875 C3623.77728941 1352.10641009 3628.60374304 1357.97760512 3633.45751953 1363.83813477 C3637.66276712 1368.92684258 3641.77153581 1374.08146109 3645.83251953 1379.28564453 C3649.23131136 1383.63725148 3652.70268006 1387.92342409 3656.2109375 1392.1875 C3663.37528312 1400.90583446 3670.48260819 1409.67150845 3677.515625 1418.49609375 C3679.75879354 1421.29086111 3682.02066855 1424.06971931 3684.28491211 1426.84741211 C3688.94171258 1432.56046358 3693.56643099 1438.29220143 3698.09765625 1444.10546875 C3702.77861318 1450.10797597 3707.60561402 1455.98140945 3712.46191406 1461.8425293 C3716.15992991 1466.31595193 3719.78516724 1470.83606178 3723.34765625 1475.41796875 C3727.37945522 1480.60266108 3731.55576259 1485.63923334 3735.8215332 1490.63256836 C3738.874877 1494.21459653 3741.79843877 1497.8661957 3744.66015625 1501.6015625 C3751.69415788 1510.62761538 3759.03846402 1519.42062987 3766.29296875 1528.26953125 C3768.10578834 1530.48918824 3769.9125547 1532.71322243 3771.71484375 1534.94140625 C3776.8902254 1541.33674327 3782.08047179 1547.71275227 3787.41015625 1553.98046875 C3816.30933422 1587.99753423 3816.30933422 1587.99753423 3815.96875 1608.47265625 C3815.15611127 1618.20374782 3809.66133948 1624.55532366 3802.69921875 1630.9765625 C3782.57623138 1647.77065419 3753.19446219 1652.34861269 3728.46313477 1658.84195709 C3724.31516568 1659.93279319 3720.16935145 1661.03175469 3716.0234375 1662.13037109 C3710.90442431 1663.48652903 3705.78533773 1664.8423976 3700.66546631 1666.1953125 C3685.00138909 1670.33515521 3669.35253618 1674.53058452 3653.70756912 1678.74198151 C3650.28692758 1679.66252366 3646.86598887 1680.58196004 3643.44506836 1681.50146484 C3631.53245931 1684.70374171 3619.62066269 1687.9090323 3607.70946693 1691.11656189 C3601.80890121 1692.70544911 3595.90807381 1694.29336243 3590.00710106 1695.8807373 C3586.54593676 1696.81186944 3583.08490434 1697.74348368 3579.62426758 1698.67657471 C3563.67197644 1702.97687377 3547.70444235 1707.21236529 3531.71875 1711.38671875 C3510.19527104 1717.00772719 3488.7046538 1722.74908766 3467.21746826 1728.50704956 C3456.11070598 1731.48326054 3445.00269348 1734.45480022 3433.89453125 1737.42578125 C3432.79458706 1737.71999151 3431.69464287 1738.01420177 3430.56136703 1738.3173275 C3411.39390657 1743.44354945 3392.21825273 1748.53810532 3373.03515625 1753.60546875 C3367.66398638 1755.0244516 3362.29285961 1756.44359732 3356.921875 1757.86328125 C3356.2633296 1758.03734497 3355.6047842 1758.21140869 3354.92628288 1758.39074707 C3337.89292626 1762.89381369 3320.87030973 1767.43714303 3303.84765625 1771.98046875 C3297.53909306 1773.66417705 3291.23051808 1775.34784107 3284.921875 1777.03125 C3284.13402618 1777.24148489 3283.34617737 1777.45171978 3282.53445435 1777.66832542 C3264.57018421 1782.46165598 3246.6012112 1787.23725732 3228.63180923 1792.01130676 C3192.07996554 1801.72230037 3155.53544619 1811.46061477 3118.99414062 1821.21118164 C3111.54969822 1823.19759908 3104.10496117 1825.18291046 3096.66015625 1827.16796875 C3096.66015625 1829.81493061 3097.58630924 1830.66456181 3099.16015625 1832.78125 C3099.70929688 1833.52375 3100.2584375 1834.26625 3100.82421875 1835.03125 C3101.43007813 1835.83949219 3102.0359375 1836.64773438 3102.66015625 1837.48046875 C3103.28664062 1838.32351563 3103.913125 1839.1665625 3104.55859375 1840.03515625 C3109.87956213 1847.17534899 3115.28236511 1854.25294788 3120.69311523 1861.32519531 C3125.68078201 1867.85358644 3130.57787653 1874.44323203 3135.43701172 1881.06762695 C3142.63149919 1890.87039709 3149.9506095 1900.5796172 3157.26123047 1910.29589844 C3163.02054337 1917.95154791 3168.74245493 1925.6316888 3174.41015625 1933.35546875 C3179.42183428 1940.18223584 3184.51364043 1946.94233795 3189.66015625 1953.66796875 C3197.70135719 1964.17944979 3205.55075896 1974.82427759 3213.36914062 1985.50195312 C3220.70927742 1995.52036104 3228.14247119 2005.45728218 3235.68994141 2015.32055664 C3240.74959539 2021.94366942 3245.71748931 2028.6292378 3250.64794922 2035.34887695 C3256.26141166 2042.9985639 3261.95438763 2050.58701111 3267.66015625 2058.16796875 C3274.5699446 2067.3486447 3281.43283111 2076.56087886 3288.23779297 2085.81958008 C3293.1351091 2092.47454659 3298.08946264 2099.08544087 3303.05615234 2105.6887207 C3307.27311073 2111.30134081 3311.44614803 2116.94432117 3315.59765625 2122.60546875 C3320.54619385 2129.34939415 3325.57713659 2136.02488072 3330.66015625 2142.66796875 C3338.70132099 2153.17947811 3346.55075832 2163.82427672 3354.36914062 2174.50195312 C3361.06827706 2183.6454723 3367.8294994 2192.73202897 3374.72265625 2201.73046875 C3380.1819231 2208.85708505 3385.50729477 2216.05987456 3390.72900391 2223.36181641 C3395.56712595 2230.10015208 3400.59442973 2236.68626532 3405.63964844 2243.27026367 C3410.72092059 2249.90997982 3415.70701104 2256.6136862 3420.65209961 2263.35522461 C3424.291607 2268.31573454 3427.96004767 2273.25251397 3431.66015625 2278.16796875 C3435.98376669 2283.91550551 3440.27111956 2289.68859365 3444.53515625 2295.48046875 C3445.12184082 2296.27727051 3445.70852539 2297.07407227 3446.31298828 2297.89501953 C3449.24541347 2301.88006903 3452.17368406 2305.86811959 3455.09765625 2309.859375 C3461.22538683 2318.21338937 3467.42220149 2326.50575198 3473.72265625 2334.73046875 C3479.1819231 2341.85708505 3484.50729477 2349.05987456 3489.72900391 2356.36181641 C3493.91437021 2362.19102097 3498.23386836 2367.90890862 3502.59765625 2373.60546875 C3509.48836925 2382.60071829 3516.24629441 2391.68444258 3522.94238281 2400.82519531 C3525.84086418 2404.7782691 3528.7510138 2408.72273772 3531.66015625 2412.66796875 C3535.14238995 2417.39039698 3538.62243081 2422.114331 3542.08984375 2426.84765625 C3548.21956459 2435.20604991 3554.41939114 2443.5019795 3560.72265625 2451.73046875 C3566.88783173 2459.77950961 3572.87740574 2467.93665495 3578.78515625 2476.17578125 C3581.87351843 2480.47887227 3585.04732307 2484.71396896 3588.23828125 2488.94140625 C3593.16021789 2495.47743625 3597.98122855 2502.08953488 3602.82958984 2508.68017578 C3605.77101214 2512.6776542 3608.71570318 2516.67272252 3611.66015625 2520.66796875 C3612.82683958 2522.2512898 3613.99350623 2523.83462315 3615.16015625 2525.41796875 C3615.73765625 2526.20171875 3616.31515625 2526.98546875 3616.91015625 2527.79296875 C3627.99348958 2542.83463542 3639.07682292 2557.87630208 3650.16015625 2572.91796875 C3651.0265271 2574.0937146 3651.0265271 2574.0937146 3651.91040039 2575.29321289 C3653.07636431 2576.8756506 3654.24221729 2578.45817006 3655.40795898 2580.04077148 C3658.33447068 2584.01348762 3661.26293159 2587.98473869 3664.1953125 2591.953125 C3671.58865845 2601.96315959 3678.92326907 2612.0128753 3686.18457031 2622.11914062 C3687.553501 2624.0198796 3688.92969175 2625.9150826 3690.30859375 2627.80859375 C3700.06860177 2641.25402642 3709.32010132 2654.74230804 3715.66015625 2670.16796875 C3716.01980469 2671.00070313 3716.37945312 2671.8334375 3716.75 2672.69140625 C3720.1794977 2681.95263046 3720.45330608 2694.6749692 3716.91015625 2703.91796875 C3715.13015701 2707.5588763 3713.10623587 2710.93051042 3710.66015625 2714.16796875 C3710.29921875 2714.68488281 3709.93828125 2715.20179688 3709.56640625 2715.734375 C3687.63291885 2744.5555124 3637.40230536 2756.04961796 3604.66015625 2768.16796875 C3603.61186646 2768.55635925 3602.56357666 2768.94474976 3601.48352051 2769.34490967 C3570.65177499 2780.767144 3539.77697021 2792.07012241 3508.8671875 2803.27929688 C3501.08022329 2806.10330905 3493.29510124 2808.93238821 3485.51034546 2811.76248169 C3483.73386669 2812.40829813 3481.95735704 2813.05402961 3480.18081665 2813.69967651 C3468.32985151 2818.00696388 3456.48349298 2822.32675273 3444.640625 2826.65625 C3414.96556186 2837.50397492 3385.2720002 2848.29591264 3355.53620911 2858.97639465 C3344.67591776 2862.87845674 3333.82391583 2866.80337409 3322.97265625 2870.73046875 C3321.01228932 2871.43978115 3319.05192148 2872.14909105 3317.09155273 2872.85839844 C3308.49300714 2875.96986069 3299.89499305 2879.08278842 3291.29743958 2882.19699097 C3286.60603556 2883.89617636 3281.91440323 2885.59473059 3277.22265625 2887.29296875 C3276.27774323 2887.63501343 3275.3328302 2887.97705811 3274.35928345 2888.32946777 C3262.04734452 2892.7851257 3249.72955767 2897.22433179 3237.40625 2901.6484375 C3236.74779964 2901.88483192 3236.08934929 2902.12122635 3235.41094589 2902.36478424 C3232.03111344 2903.57816948 3228.65124348 2904.7914502 3225.2713623 2906.00469971 C3224.59368301 2906.24796242 3223.91600372 2906.49122513 3223.2177887 2906.74185944 C3221.84554943 2907.23443949 3220.47330618 2907.72700845 3219.10105896 2908.21956635 C3199.54169153 2915.24056389 3179.99794168 2922.30259478 3160.47265625 2929.41796875 C3137.13749168 2937.92129189 3113.7653493 2946.31837551 3090.38128662 2954.68614197 C3078.73985744 2958.85308953 3067.10575857 2963.04034119 3055.47265625 2967.23046875 C3053.93307755 2967.78495697 3053.93307755 2967.78495697 3052.36239624 2968.35064697 C3047.1954595 2970.21157886 3042.02861108 2972.07275575 3036.86181641 2973.93408203 C3025.41903364 2978.05613492 3013.97505838 2982.17487648 3002.53131104 2986.29425049 C2999.40367927 2987.42010518 2996.27605527 2988.54598144 2993.1484375 2989.671875 C2991.60065613 2990.22905212 2991.60065613 2990.22905212 2990.02160645 2990.79748535 C2983.80146664 2993.03675512 2977.58159556 2995.27676957 2971.36193848 2997.51737976 C2948.16722074 3005.87317052 2924.96739234 3014.21443296 2901.75805664 3022.52954102 C2888.52111378 3027.27190646 2875.28599732 3032.01928696 2862.0546875 3036.77734375 C2861.39266453 3037.01540552 2860.73064156 3037.25346729 2860.04855728 3037.49874306 C2857.35226193 3038.46833179 2854.6559746 3039.43794284 2851.959692 3040.40756702 C2818.72346833 3052.35971963 2785.46627424 3064.25235493 2752.19824219 3076.11572266 C2747.18532958 3077.90336263 2742.17262017 3079.69157105 2737.16015625 3081.48046875 C2736.34752319 3081.7704776 2735.53489014 3082.06048645 2734.69763184 3082.35928345 C2717.27629074 3088.57822948 2699.87051769 3094.84046408 2682.46386337 3101.10036087 C2660.33043855 3109.06001844 2638.18667443 3116.99006609 2616.03320312 3124.89379883 C2604.87573586 3128.87482732 2593.71999733 3132.86050054 2582.5703125 3136.86328125 C2581.49544083 3137.24915405 2580.42056915 3137.63502686 2579.31312561 3138.03259277 C2577.14066296 3138.81253309 2574.96820304 3139.59248101 2572.79574585 3140.37243652 C2551.77508036 3147.91873011 2530.73504886 3155.4090352 2509.6834259 3162.86839676 C2490.87033711 3169.5345849 2472.0696707 3176.23406118 2453.28515625 3182.98046875 C2430.74373769 3191.07522529 2408.17470166 3199.08983561 2385.59277344 3207.07080078 C2375.55128777 3210.61993586 2365.51198566 3214.17523996 2355.47265625 3217.73046875 C2353.97125092 3218.26208618 2353.97125092 3218.26208618 2352.43951416 3218.80444336 C2339.2624482 3223.47038599 2326.08912024 3228.14670161 2312.91940308 3232.83334351 C2293.58903689 3239.71196748 2274.25193231 3246.5715021 2254.91015625 3253.41796875 C2254.22245903 3253.66140141 2253.53476181 3253.90483406 2252.82622528 3254.15564346 C2237.16143589 3259.70027289 2221.49283007 3265.23383137 2205.8125 3270.734375 C2205.17470989 3270.95810917 2204.53691978 3271.18184334 2203.8798027 3271.41235733 C2197.28242913 3273.72639093 2190.68418581 3276.0379306 2184.08496094 3278.34667969 C2171.51895614 3282.74533113 2158.96845194 3287.18465192 2146.43632507 3291.67903137 C2136.39545806 3295.27680033 2126.32554491 3298.78786774 2116.23046875 3302.23046875 C2111.62234179 3303.80370564 2107.01868983 3305.38897049 2102.42089844 3306.9921875 C1921.33612056 3370.13313 1921.33612056 3370.13313 1864.0546875 3343.04296875 C1835.09911001 3328.73304696 1812.24340432 3304.98210188 1793.23486328 3279.28222656 C1791.68724941 3277.204345 1790.11434877 3275.14859022 1788.53125 3273.09765625 C1782.13253176 3264.77383966 1776.39136684 3256.22655698 1770.94189453 3247.25732422 C1769.17996407 3244.38520976 1767.36720663 3241.54664454 1765.55541992 3238.70581055 C1757.39397611 3225.89708673 1749.54628746 3212.89681315 1741.70111084 3199.89312744 C1740.70446355 3198.24139859 1739.70698734 3196.59017 1738.70947266 3194.93896484 C1728.88449908 3178.66643238 1719.24175507 3162.2905659 1709.65753174 3145.87561035 C1708.1063083 3143.21970621 1706.55298652 3140.56502974 1705 3137.91015625 C1698.38128957 3126.58743707 1691.80846368 3115.23895217 1685.26293945 3103.8737793 C1681.10866451 3096.66490623 1676.92430356 3089.47431312 1672.72265625 3082.29296875 C1665.97722857 3070.75498814 1659.34215563 3059.15507859 1652.72506714 3047.54325867 C1650.33641674 3043.35201987 1647.94299881 3039.16353277 1645.546875 3034.9765625 C1639.34652917 3024.14033006 1633.16054888 3013.29683838 1627.03515625 3002.41796875 C1622.69283926 2994.70653211 1618.26578746 2987.04978566 1613.78515625 2979.41796875 C1608.1804496 2969.86413786 1602.76401972 2960.21659027 1597.40893555 2950.52099609 C1592.87392994 2942.32114457 1588.25995275 2934.1707647 1583.59765625 2926.04296875 C1577.92042715 2916.1434857 1572.30241757 2906.21292456 1566.73803711 2896.24951172 C1562.8995602 2889.37709129 1559.03883522 2882.51777573 1555.16015625 2875.66796875 C1550.6380602 2867.68023837 1546.14056088 2859.67915727 1541.66015625 2851.66796875 C1537.15661348 2843.61646294 1532.63913282 2835.57314375 1528.09765625 2827.54296875 C1527.56382324 2826.59905273 1527.02999023 2825.65513672 1526.47998047 2824.68261719 C1523.81704749 2819.97592547 1521.15155818 2815.27069057 1518.484375 2810.56640625 C1512.01458417 2799.14749769 1505.60945907 2787.69465181 1499.24658203 2776.21582031 C1495.25116161 2769.01399539 1491.22255769 2761.8322038 1487.16015625 2754.66796875 C1481.79955636 2745.21429997 1476.51478374 2735.71999058 1471.24609375 2726.21484375 C1467.25076345 2719.0133842 1463.22231504 2711.83192371 1459.16015625 2704.66796875 C1453.82615914 2695.25947023 1448.56147654 2685.81379223 1443.31640625 2676.35546875 C1439.11597368 2668.78261496 1434.89615963 2661.22097817 1430.66015625 2653.66796875 C1423.9320863 2641.66818672 1417.24863515 2629.64389382 1410.57324219 2617.61474609 C1407.33324119 2611.77728642 1404.09028768 2605.94146753 1400.84765625 2600.10546875 C1399.59113222 2597.84375756 1398.33462138 2595.58203905 1397.078125 2593.3203125 C1396.4907959 2592.26312012 1395.9034668 2591.20592773 1395.29833984 2590.11669922 C1380.24218749 2563.01562499 1380.24218749 2563.01562499 1378.38647461 2559.67529297 C1377.10479154 2557.36829615 1375.82305276 2555.06133028 1374.54125977 2552.75439453 C1371.311334 2546.94116616 1368.08236523 2541.12741077 1364.85546875 2535.3125 C1358.83219932 2524.46076899 1352.79629752 2513.61659735 1346.72265625 2502.79296875 C1341.29227483 2493.11567155 1335.9233088 2483.40578578 1330.57455444 2473.68325806 C1326.11724256 2465.58348349 1321.60815757 2457.51565495 1317.03515625 2449.48046875 C1311.84287258 2440.352112 1306.84802843 2431.12715625 1301.89453125 2421.86743164 C1297.51707095 2413.70529212 1293.00186397 2405.63045583 1288.4206543 2397.58129883 C1284.18231143 2390.1242724 1280.05592882 2382.61087745 1275.96166992 2375.07397461 C1271.72249514 2367.27129374 1267.42039922 2359.50536149 1263.09716797 2351.74902344 C1261.46053616 2348.80942584 1259.82770963 2345.8677325 1258.1953125 2342.92578125 C1249.71984674 2327.65267764 1241.20648669 2312.40151882 1232.66015625 2297.16796875 C1227.05103757 2297.76787028 1221.76933045 2298.76831194 1216.32226562 2300.21484375 C1215.52524892 2300.42211971 1214.72823221 2300.62939568 1213.90706348 2300.84295273 C1211.27137602 2301.52974573 1208.63765876 2302.22379578 1206.00390625 2302.91796875 C1204.12748387 2303.4086389 1202.25095033 2303.89888414 1200.37431335 2304.38873291 C1195.34429838 2305.70312995 1190.31599802 2307.02397701 1185.28802109 2308.34614563 C1181.10317016 2309.44568395 1176.91728914 2310.54127063 1172.73139095 2311.63681412 C1146.44237731 2318.51763318 1120.17113459 2325.46437813 1093.91430664 2332.46691895 C1077.10647026 2336.94905458 1060.28022533 2341.34215403 1043.41741943 2345.61254883 C1024.59056162 2350.38373034 1005.80489648 2355.30752447 987.02180862 2360.24753571 C979.20872133 2362.30239596 971.39538863 2364.35632324 963.58203125 2366.41015625 C962.24952929 2366.76043695 962.24952929 2366.76043695 960.89010811 2367.11779404 C939.34020416 2372.78215848 917.78281251 2378.41776576 896.22265625 2384.04296875 C895.2674559 2384.29220848 894.31225555 2384.54144821 893.32810974 2384.79824066 C860.65376751 2393.32329438 827.96379662 2401.78710704 795.26689816 2410.22518635 C772.30562517 2416.15106533 749.35250161 2422.10674477 726.41015625 2428.10546875 C697.41333753 2435.6871421 668.39443826 2443.18204816 639.3711853 2450.66183472 C609.58006065 2458.33958138 609.58006065 2458.33958138 579.8046875 2466.078125 C579.06726507 2466.27057234 578.32984264 2466.46301968 577.57007408 2466.66129875 C573.90364366 2467.6182299 570.23728829 2468.57544837 566.57095337 2469.53274536 C533.26663635 2478.22806357 499.92305931 2486.7657733 466.56835938 2495.265625 C463.56206498 2496.0317379 460.55577188 2496.7978559 457.54948425 2497.56399536 C455.56227668 2498.07042586 453.57506355 2498.57683458 451.58784485 2499.08322144 C438.576947 2502.39903707 425.56920422 2505.72677909 412.56640625 2509.07421875 C411.44399945 2509.36315789 411.44399945 2509.36315789 410.29891777 2509.65793419 C407.31460844 2510.42622505 404.3303187 2511.19459201 401.34604549 2511.96302319 C356.0566362 2523.62377765 310.72869493 2535.13298932 265.36248779 2546.49133301 C262.73522953 2547.14917118 260.10809099 2547.80748592 257.48095703 2548.46582031 C248.24923864 2550.77790692 239.01366173 2553.0734838 229.77148438 2555.34341431 C227.10217892 2555.99926965 224.43425437 2556.66028889 221.76757812 2557.32675171 C159.04860068 2572.95185392 92.85790425 2577.50843323 35.11914062 2543.27246094 C28.2281821 2539.04216155 21.86750262 2534.34697843 15.66015625 2529.16796875 C14.73251465 2528.40637451 14.73251465 2528.40637451 13.78613281 2527.62939453 C11.8391445 2526.02790216 9.90364134 2524.41370973 7.97265625 2522.79296875 C7.37155029 2522.29289307 6.77044434 2521.79281738 6.15112305 2521.27758789 C3.20861559 2518.76096408 1.28010914 2516.66323657 -0.33984375 2513.16796875 C-1.32984375 2512.83796875 -2.31984375 2512.50796875 -3.33984375 2512.16796875 C-5.92047246 2509.73460418 -8.09422995 2506.90851747 -10.33984375 2504.16796875 C-10.74799316 2503.67071289 -11.15614258 2503.17345703 -11.57666016 2502.66113281 C-31.97365481 2477.66325531 -45.20605406 2449.55210752 -58.43319702 2420.3420105 C-63.15601825 2409.9124531 -67.95974408 2399.5248057 -72.83984375 2389.16796875 C-78.15418689 2377.88633506 -83.36701837 2366.56336207 -88.5078125 2355.20166016 C-94.27969167 2342.4493385 -100.15546511 2329.74672276 -106.05517578 2317.05310059 C-110.28222757 2307.95658404 -114.49745739 2298.85561639 -118.63671875 2289.71875 C-118.97525879 2288.97160736 -119.31379883 2288.22446472 -119.66259766 2287.4546814 C-121.23226502 2283.98752106 -122.79775583 2280.51854524 -124.35742188 2277.046875 C-127.66220254 2269.71325414 -131.14284524 2262.49763306 -134.76806641 2255.3190918 C-136.76429602 2251.3170204 -138.60420047 2247.26180868 -140.40234375 2243.16796875 C-144.20394642 2234.62360626 -148.12639796 2226.13816746 -152.08984375 2217.66796875 C-152.38776825 2217.03105103 -152.68569275 2216.3941333 -152.99264526 2215.73791504 C-154.20727107 2213.14127813 -155.42202771 2210.54470257 -156.63716125 2207.94830322 C-167.21996815 2185.3304637 -177.73419324 2162.67770399 -188.0859375 2139.953125 C-194.85877159 2125.08906388 -201.67737375 2110.25095674 -208.65234375 2095.48046875 C-213.48508814 2085.24637951 -218.28334723 2074.99988175 -222.98217773 2064.70336914 C-227.3666233 2055.09600223 -231.78853398 2045.50610092 -236.21484375 2035.91796875 C-236.80214264 2034.64561874 -236.80214264 2034.64561874 -237.40130615 2033.3475647 C-242.70922005 2021.84954689 -248.03131112 2010.35825704 -253.37109375 1998.875 C-256.4627922 1992.22246478 -259.54289246 1985.56473631 -262.61328125 1978.90234375 C-262.98686264 1978.09177521 -263.36044403 1977.28120667 -263.74534607 1976.44607544 C-264.51361449 1974.77909511 -265.28187922 1973.11211307 -266.05014038 1971.44512939 C-266.43449249 1970.61116638 -266.8188446 1969.77720337 -267.21484375 1968.91796875 C-267.59879303 1968.0848114 -267.98274231 1967.25165405 -268.37832642 1966.39324951 C-273.85291332 1954.51695458 -279.37977637 1942.66660694 -284.94918823 1930.83453369 C-289.96380022 1920.17434416 -294.85761372 1909.46284207 -299.71078491 1898.72833252 C-304.81533668 1887.44434084 -310.05322401 1876.22822107 -315.349823 1865.03326416 C-320.59527463 1853.94094124 -325.71502998 1842.79729591 -330.76708984 1831.61572266 C-335.5273294 1821.0861028 -340.39784652 1810.61343503 -345.33984375 1800.16796875 C-350.94543437 1788.31946113 -356.43525732 1776.42484722 -361.83447266 1764.48095703 C-366.42155613 1754.33741692 -371.09460515 1744.23845041 -375.83984375 1734.16796875 C-380.90670832 1723.41492322 -385.88089604 1712.62466003 -390.77734375 1701.79296875 C-396.19065278 1689.81850245 -401.7304872 1677.90983992 -407.35083008 1666.03125 C-412.25534754 1655.66054769 -417.05607135 1645.2482865 -421.77734375 1634.79296875 C-427.01503485 1623.19463001 -432.38139719 1611.66402374 -437.83984375 1600.16796875 C-443.63939366 1587.95309767 -449.32331635 1575.69360152 -454.8895874 1563.37072754 C-459.7971473 1552.50869626 -464.81960166 1541.70570969 -469.90460205 1530.92572021 C-475.03583832 1520.04041574 -480.01209035 1509.09297567 -484.86572266 1498.08105469 C-487.37768538 1492.41145747 -489.9844475 1486.82042161 -492.78125 1481.28515625 C-496.16424398 1474.58870092 -499.29107161 1467.79897458 -502.36254883 1460.95507812 C-507.89615947 1448.63256752 -513.56066911 1436.37704108 -519.33984375 1424.16796875 C-524.92483925 1412.36511419 -530.39076554 1400.5149807 -535.76708984 1388.61572266 C-540.5273294 1378.0861028 -545.39784652 1367.61343503 -550.33984375 1357.16796875 C-555.62272081 1346.00157909 -560.81351123 1334.79913362 -565.90234375 1323.54296875 C-570.86472681 1312.56737381 -575.90046554 1301.63024326 -581.02734375 1290.73046875 C-581.34264038 1290.06006561 -581.65793701 1289.38966248 -581.98278809 1288.69894409 C-582.45295349 1287.69929123 -582.45295349 1287.69929123 -582.93261719 1286.67944336 C-583.55536769 1285.3553197 -584.17808938 1284.03118248 -584.80078125 1282.70703125 C-585.1040332 1282.06220291 -585.40728516 1281.41737457 -585.71972656 1280.75300598 C-590.07453045 1271.48568989 -594.34939264 1262.18146417 -598.63037109 1252.87988281 C-601.68665383 1246.24138905 -604.75172656 1239.60694607 -607.81494141 1232.97164917 C-608.9680602 1230.47350054 -610.12080518 1227.97517976 -611.2734375 1225.47680664 C-614.80177636 1217.82948373 -618.33171822 1210.18292228 -621.87019348 1202.5402832 C-623.79863945 1198.37500303 -625.72577411 1194.20911707 -627.65234375 1190.04296875 C-628.02745087 1189.23196716 -628.40255798 1188.42096558 -628.78903198 1187.58538818 C-634.29519002 1175.67409535 -639.72297202 1163.73053807 -645.01879883 1151.72412109 C-647.48037816 1146.17408753 -650.04442478 1140.70534419 -652.78125 1135.28515625 C-656.09642539 1128.71861976 -659.17817412 1122.06155457 -662.19198608 1115.35305786 C-663.79784534 1111.78027891 -665.41441945 1108.2123558 -667.03125 1104.64453125 C-667.37432693 1103.88731277 -667.71740387 1103.1300943 -668.07087708 1102.34992981 C-672.33576827 1092.95188033 -676.68157313 1083.59131942 -681.02734375 1074.23046875 C-681.43450623 1073.35326172 -681.8416687 1072.47605469 -682.26116943 1071.57226562 C-683.86216502 1068.12315855 -685.46329455 1064.6741138 -687.06488037 1061.22528076 C-690.29255932 1054.27374214 -693.50673745 1047.3160642 -696.71484375 1040.35546875 C-700.7423005 1031.61967183 -704.7864443 1022.89175794 -708.83984375 1014.16796875 C-716.30763455 998.09164322 -723.76751307 982.01177446 -731.12109375 965.8828125 C-732.46475478 962.93615733 -733.8084701 959.98952695 -735.15234375 957.04296875 C-735.49044067 956.30160675 -735.8285376 955.56024475 -736.17687988 954.79641724 C-741.32308721 943.51802841 -746.55143846 932.28085444 -751.83364868 921.06561279 C-756.90789144 910.28656761 -761.86551709 899.45832671 -766.77359009 888.60272217 C-771.45680666 878.24825183 -776.24098048 867.94582052 -781.08984375 857.66796875 C-786.07772725 847.09438075 -790.93369843 836.47697112 -795.57714844 825.74609375 C-800.52320172 814.33274379 -805.88416509 803.11361629 -811.21664429 791.87734985 C-818.13717901 777.29463913 -824.97301329 762.68022832 -831.62289429 747.9720459 C-836.9014041 736.29871236 -842.25791225 724.66317795 -847.65234375 713.04296875 C-848.25243759 711.75010452 -848.25243759 711.75010452 -848.86465454 710.43112183 C-850.48626005 706.93755868 -852.10790411 703.44401344 -853.7297821 699.95057678 C-857.96731226 690.82086327 -862.18646352 681.68269565 -866.40234375 672.54296875 C-866.7708847 671.74401184 -867.13942566 670.94505493 -867.51913452 670.12188721 C-869.00665267 666.89701325 -870.49414858 663.67212905 -871.98149109 660.44717407 C-874.62062803 654.72536838 -877.26284107 649.0049894 -879.90625 643.28515625 C-887.76426464 626.27943438 -895.59479131 609.26172023 -903.37597656 592.22070312 C-908.14324937 581.78077207 -912.92324826 571.3467597 -917.71484375 560.91796875 C-918.06505585 560.15566956 -918.41526794 559.39337036 -918.77609253 558.60797119 C-922.8037921 549.84247459 -926.83967131 541.08079985 -930.88671875 532.32421875 C-931.45374512 531.09728554 -931.45374512 531.09728554 -932.03222656 529.8455658 C-932.41024414 529.02762039 -932.78826172 528.20967499 -933.17773438 527.36694336 C-933.9401162 525.71729072 -934.70248601 524.06763252 -935.46484375 522.41796875 C-935.8405249 521.60506378 -936.21620605 520.79215881 -936.60327148 519.95462036 C-942.16392922 507.9189595 -947.67689383 495.8625028 -953.1524353 483.78790283 C-957.16390557 474.94212365 -961.1987509 466.108081 -965.27734375 457.29296875 C-971.64088673 443.53936605 -977.93779475 429.75561313 -984.23266602 415.9704895 C-986.61659401 410.7502169 -989.00290799 405.53104052 -991.390625 400.3125 C-998.2006575 385.42732484 -1004.99795974 370.5365435 -1011.76434326 355.63146973 C-1015.3020955 347.83855981 -1018.84818325 340.04961704 -1022.4140625 332.26953125 C-1029.97412281 315.7738256 -1037.48725144 299.26226592 -1044.80078125 282.65527344 C-1045.88044561 280.20890197 -1046.9632374 277.76414785 -1048.05078125 275.32128906 C-1062.224844 243.48071384 -1075.45047521 211.72618104 -1081.33984375 177.16796875 C-1081.53320312 176.08644531 -1081.7265625 175.00492188 -1081.92578125 173.890625 C-1084.69473631 148.9961517 -1081.84423968 125.9166034 -1066.42578125 105.65234375 C-1050.02712944 86.12136519 -1021.59044903 80.27215551 -997.51437998 78.12455034 C-995.41535602 77.94603325 -993.31577146 77.77550337 -991.21606445 77.60522461 C-989.67194304 77.47386902 -988.12788175 77.34180497 -986.58387566 77.20910072 C-982.41574505 76.85295085 -978.24683045 76.50693561 -974.07768416 76.16290784 C-969.58981834 75.79083062 -965.10274739 75.40937607 -960.61555481 75.02928162 C-951.09236475 74.22440615 -941.56820214 73.43152288 -932.04376984 72.64150238 C-926.50831581 72.18227764 -920.97309354 71.72030766 -915.43792725 71.25762939 C-892.15269237 69.31192158 -868.86567345 67.38825229 -845.57780033 65.47440088 C-838.3778581 64.88269144 -831.17797359 64.29028345 -823.9781189 63.69750977 C-794.50251439 61.27086284 -765.02648556 58.84940706 -735.55017662 56.43133259 C-732.37588201 56.1709252 -729.20158972 55.91048953 -726.02729797 55.6500473 C-663.83126375 50.54717951 -601.63324477 45.4688933 -539.43287945 40.41908741 C-536.33618384 40.16767161 -533.23949139 39.91621686 -530.14279938 39.66475677 C-426.66396253 31.2624884 -323.17641991 22.97463996 -75.40234375 4.29296875 C-74.23059475 4.21111328 -73.05884575 4.12925781 -71.8515892 4.04492188 C-64.3389133 3.52083323 -56.82587036 3.00231271 -49.3125 2.48828125 C-48.40400677 2.42581333 -47.49551353 2.36334541 -46.5594902 2.29898453 C-13.31116585 0.01954494 -13.31116585 0.01954494 0 0 Z M-58.4375 140.94140625 C-60.72907868 141.13840395 -63.02072253 141.33464476 -65.31242371 141.5302124 C-70.98361978 142.01640279 -76.65401591 142.51122801 -82.32413214 143.00984192 C-87.14565234 143.43352918 -91.96754249 143.85278723 -96.78967285 144.26947021 C-97.49879346 144.3307488 -98.20791406 144.39202738 -98.93852317 144.45516288 C-100.39175424 144.58073191 -101.8449857 144.70629641 -103.29821754 144.83185649 C-122.76880463 146.51499028 -142.23707648 148.22437534 -161.70514774 149.93632126 C-165.23176059 150.24638778 -168.7583919 150.55624402 -172.28502303 150.8661024 C-208.93276825 154.08615577 -245.57942369 157.31854836 -282.2253418 160.55932617 C-284.42967508 160.7542622 -286.63400839 160.949198 -288.83834171 161.14413357 C-289.94042978 161.24159463 -291.04251786 161.33905569 -292.17800254 161.43947011 C-364.91519139 167.87178787 -437.65539117 174.26958052 -510.39696544 180.65209138 C-512.71276566 180.85528641 -515.02856521 181.05848906 -517.34436464 181.261693 C-596.39446426 188.19799749 -675.44616528 195.11498435 -754.50690556 201.9291501 C-757.2706203 202.16738917 -760.03432529 202.40574097 -762.79802704 202.64413071 C-773.75646629 203.58933684 -784.71505608 204.53277152 -795.67383075 205.4740808 C-797.8849015 205.66411945 -800.095944 205.85448351 -802.30697823 206.04494667 C-806.30472765 206.38925145 -810.30262136 206.73185071 -814.30053711 207.07421875 C-815.43021093 207.17167232 -816.55988476 207.26912588 -817.72379112 207.36953259 C-824.58544453 207.95523203 -831.44618831 208.44841231 -838.32071781 208.85949707 C-842.32457168 209.26858088 -844.91269433 210.06494524 -848.33984375 212.16796875 C-852.27482902 218.00352514 -850.95088812 226.58566283 -849.828125 233.16796875 C-847.87895422 240.31809767 -844.66646918 246.86535998 -841.453125 253.515625 C-840.97174072 254.51682373 -840.49035645 255.51802246 -839.99438477 256.54956055 C-834.33951368 268.28660006 -828.59066793 279.97773988 -822.83984375 291.66796875 C-813.54006633 310.57248105 -804.37617437 329.53587698 -795.35319519 348.57402039 C-791.18022402 357.37082962 -786.91612143 366.11277781 -782.53125 374.80566406 C-775.53378243 388.68015098 -768.57825286 402.56814469 -761.90893555 416.60375977 C-757.44377124 425.98680316 -752.89484616 435.32831622 -748.33984375 444.66796875 C-747.9353299 445.49753082 -747.53081604 446.3270929 -747.11404419 447.18179321 C-745.02887408 451.45771884 -742.94309932 455.73334911 -740.85693359 460.00878906 C-736.78598628 468.35217481 -732.71879347 476.69739019 -728.65234375 485.04296875 C-728.25702454 485.85423218 -727.86170532 486.66549561 -727.45440674 487.50134277 C-720.38559177 502.00894288 -713.34161203 516.52848943 -706.30436707 531.05142212 C-696.3446116 551.60413277 -686.35687735 572.14311484 -676.33984375 592.66796875 C-662.95471053 620.09404267 -649.633946 647.55126355 -636.32330322 675.0135498 C-633.97429173 679.85975167 -631.62408906 684.70537473 -629.2734375 689.55078125 C-627.92051446 692.3398154 -626.56766793 695.12888665 -625.21484375 697.91796875 C-624.71188278 698.95482819 -624.71188278 698.95482819 -624.19876099 700.01263428 C-620.24169711 708.17091191 -616.29421259 716.33366605 -612.35986328 724.50292969 C-605.73795461 738.24992561 -599.04772266 751.96272729 -592.33984375 765.66796875 C-583.95103407 782.80834745 -575.60683652 799.9684643 -567.33984375 817.16796875 C-566.26175813 819.40757104 -565.18363304 821.64715433 -564.10546875 823.88671875 C-555.7461628 841.26446437 -555.7461628 841.26446437 -552.18798828 848.88598633 C-551.64440674 850.04650513 -551.64440674 850.04650513 -551.08984375 851.23046875 C-550.81412033 851.81977173 -550.53839691 852.40907471 -550.25431824 853.01623535 C-548.1706991 857.45121797 -546.0191675 861.84754402 -543.8125 866.22265625 C-538.98101977 875.84712602 -534.2460265 885.5185185 -529.51391602 895.19213867 C-528.04113627 898.20227892 -526.56653025 901.21151962 -525.09179688 904.22070312 C-519.79207626 915.0446868 -514.54531575 925.8920271 -509.35720825 936.76994324 C-505.17305183 945.53610484 -500.92018107 954.26780422 -496.65036011 962.99249268 C-490.82015706 974.90723505 -484.99743862 986.82489715 -479.27734375 998.79296875 C-474.28574796 1009.23417056 -469.22478637 1019.64088216 -464.15234375 1030.04296875 C-463.74574524 1030.87679077 -463.33914673 1031.71061279 -462.92022705 1032.56970215 C-461.27233488 1035.94893644 -459.62441469 1039.32815706 -457.97640991 1042.70733643 C-451.07927128 1056.85198798 -444.21011602 1071.01025398 -437.33984375 1085.16796875 C-436.99888672 1085.87050781 -436.65792969 1086.57304688 -436.30664062 1087.296875 C-429.61165699 1101.09183183 -422.91824854 1114.88747326 -416.26098633 1128.70068359 C-410.03209817 1141.62437528 -403.75898788 1154.52593368 -397.46484375 1167.41796875 C-385.81697164 1191.2760354 -374.23156318 1215.16373923 -362.69775391 1239.07714844 C-357.73279909 1249.36600426 -352.74133325 1259.64189188 -347.74685669 1269.91644287 C-342.92984121 1279.82658701 -338.12567366 1289.7427238 -333.33984375 1299.66796875 C-328.23218978 1310.25976947 -323.10445055 1320.84163955 -317.96484375 1331.41796875 C-317.60895172 1332.15037781 -317.25305969 1332.88278687 -316.88638306 1333.63739014 C-315.44675859 1336.60006487 -314.00709892 1339.56272249 -312.56739807 1342.52536011 C-295.1049724 1378.46113813 -295.1049724 1378.46113813 -287.40234375 1394.54296875 C-278.09093117 1413.9781032 -268.64818868 1433.35011145 -259.19140625 1452.71484375 C-258.75977676 1453.59872772 -258.32814728 1454.48261169 -257.88343811 1455.39328003 C-257.45179855 1456.27718414 -257.020159 1457.16108826 -256.57543945 1458.07177734 C-255.70522592 1459.85383384 -254.83502732 1461.63589763 -253.96484375 1463.41796875 C-253.53424652 1464.29978821 -253.10364929 1465.18160767 -252.66000366 1466.09014893 C-247.53747545 1476.5829896 -242.43872834 1487.08562728 -237.42163086 1497.62939453 C-232.97083839 1506.9720102 -228.44021349 1516.27561906 -223.91412354 1525.58190918 C-219.1014848 1535.4774736 -214.30305435 1545.3795156 -209.52734375 1555.29296875 C-203.77567395 1567.22924793 -197.96773295 1579.13762911 -192.15234375 1591.04296875 C-186.52997196 1602.55345471 -180.92287015 1614.06945757 -175.41796875 1625.63671875 C-171.37279724 1634.12658488 -167.26429053 1642.58530696 -163.15234375 1651.04296875 C-162.79019775 1651.78788574 -162.42805176 1652.53280273 -162.05493164 1653.30029297 C-160.58189644 1656.33006971 -159.10873321 1659.35978414 -157.63537598 1662.3894043 C-153.80248007 1670.27139559 -149.9762274 1678.15660191 -146.15234375 1686.04296875 C-145.82034973 1686.72758179 -145.48835571 1687.41219482 -145.14630127 1688.11755371 C-140.03177314 1698.66523726 -134.93616987 1709.22193105 -129.84570312 1719.78125 C-124.81005275 1730.21588967 -119.73209609 1740.62974281 -114.65234375 1751.04296875 C-109.21668922 1762.18593453 -103.80032032 1773.3364633 -98.47094727 1784.53076172 C-94.38705744 1793.0975018 -90.23971441 1801.63306044 -86.08984375 1810.16796875 C-85.72717407 1810.91393311 -85.36450439 1811.65989746 -84.99084473 1812.4284668 C-84.25773749 1813.93636377 -83.52462388 1815.44425765 -82.79150391 1816.95214844 C-82.42847168 1817.69883789 -82.06543945 1818.44552734 -81.69140625 1819.21484375 C-81.32772949 1819.96282227 -80.96405273 1820.71080078 -80.58935547 1821.48144531 C-76.87420252 1829.12357285 -73.16684352 1836.76946148 -69.46484375 1844.41796875 C-69.15160156 1845.06507812 -68.83835937 1845.7121875 -68.515625 1846.37890625 C-64.68354972 1854.29746844 -60.87368006 1862.22622311 -57.08984375 1870.16796875 C-52.1700931 1880.48863763 -47.16384304 1890.76664925 -42.15234375 1901.04296875 C-41.74447632 1901.87932861 -41.33660889 1902.71568848 -40.91638184 1903.57739258 C-40.09107847 1905.26967554 -39.26577126 1906.96195663 -38.44046021 1908.65423584 C-38.03213959 1909.49150208 -37.62381897 1910.32876831 -37.203125 1911.19140625 C-36.79456268 1912.02915588 -36.38600037 1912.86690552 -35.96505737 1913.7300415 C-31.91405293 1922.03818892 -27.87314611 1930.35121403 -23.83984375 1938.66796875 C-23.50689301 1939.35449524 -23.17394226 1940.04102173 -22.8309021 1940.74835205 C-18.42273872 1949.84070287 -14.0473053 1958.94813446 -9.70117188 1968.0703125 C-4.9053351 1978.1153591 -0.01943072 1988.11654536 4.85638428 1998.1229248 C9.743244 2008.15330653 14.60318094 2018.19495439 19.3984375 2028.26953125 C23.7664777 2037.42789952 28.21557511 2046.54658794 32.66015625 2055.66796875 C37.56617069 2065.73663921 42.46780568 2075.80646818 47.28515625 2085.91796875 C51.60185898 2094.97796209 55.96712815 2104.01371962 60.34765625 2113.04296875 C60.68537048 2113.73935455 61.02308472 2114.43574036 61.37103271 2115.15322876 C64.83625236 2122.29858374 68.30502394 2129.44217636 71.78535461 2136.58018494 C73.49534533 2140.08777481 75.20340808 2143.59630003 76.91015625 2147.10546875 C77.24348969 2147.79081696 77.57682312 2148.47616516 77.92025757 2149.18228149 C82.91426651 2159.46116676 87.78649726 2169.78796142 92.50488281 2180.19702148 C95.38442852 2186.52269515 98.42311166 2192.75133439 101.5464325 2198.9588623 C105.26242854 2206.34708735 108.87148898 2213.7857659 112.47265625 2221.23046875 C113.17763349 2222.6860446 113.88263056 2224.14161085 114.58764648 2225.59716797 C118.92230821 2234.55125158 123.23195447 2243.51697058 127.51147461 2252.49755859 C130.05805085 2257.83625524 132.62479658 2263.16473675 135.2109375 2268.484375 C141.50949285 2281.44325463 147.76672657 2294.41775546 153.84765625 2307.48046875 C154.37601074 2308.61186279 154.90436523 2309.74325684 155.44873047 2310.90893555 C158.08625999 2316.60218127 160.57858549 2322.30237899 162.78808594 2328.17626953 C163.94143178 2330.81036678 165.35776314 2332.4597416 167.66015625 2334.16796875 C176.9726338 2337.27212793 187.25792906 2334.86807125 196.60913086 2333.01220703 C197.74915778 2332.78896318 198.8891847 2332.56571934 200.0637579 2332.33571053 C212.08420571 2329.94447123 223.99905751 2327.14895863 235.9140625 2324.28515625 C238.30038008 2323.71610533 240.68681772 2323.14755771 243.07336426 2322.57946777 C248.80188695 2321.21454226 254.5291664 2319.84449781 260.25588381 2318.47201943 C267.0106281 2316.85347715 273.76696052 2315.24160989 280.52336299 2313.63000607 C292.43328967 2310.7889634 304.34205837 2307.94310059 316.25 2305.09375 C330.27315968 2301.73826928 344.29759107 2298.38813867 358.322649 2295.04059982 C380.45137655 2289.75871209 402.57852639 2284.47024323 424.70497131 2279.17880249 C441.09455502 2275.25934561 457.48459858 2271.34181719 473.875 2267.42578125 C475.04187977 2267.14698624 476.20875954 2266.86819122 477.4109993 2266.58094788 C483.30581239 2265.17254842 489.20063355 2263.76418274 495.09545898 2262.35583496 C505.66055716 2259.8316889 516.22559857 2257.30730528 526.79063797 2254.78291321 C529.13855561 2254.22190627 531.48647381 2253.66090163 533.83439255 2253.09989929 C550.60316323 2249.09323576 567.37184387 2245.08619557 584.14047432 2241.07894516 C606.68575096 2235.69123371 629.23118239 2230.30417074 651.77687073 2224.91818237 C662.51541901 2222.35281336 673.25390994 2219.78720513 683.9921875 2217.22070312 C695.40208937 2214.49372636 706.8122037 2211.76764044 718.22265625 2209.04296875 C719.11852322 2208.82904354 720.01439018 2208.61511833 720.93740463 2208.39471054 C747.3856924 2202.07963651 773.84394883 2195.80786039 800.31034851 2189.56915665 C819.03872263 2185.15443253 837.76393813 2180.72796686 856.47265625 2176.23046875 C857.43405518 2175.99935394 858.3954541 2175.76823914 859.38598633 2175.53012085 C865.60260947 2174.03516299 871.81876083 2172.53824851 878.03485107 2171.04107666 C891.36749484 2167.83008168 904.70085765 2164.62208501 918.03515625 2161.41796875 C918.83210403 2161.22644604 919.62905182 2161.03492332 920.45014954 2160.83759689 C945.77776564 2154.75150038 971.12300699 2148.74399545 996.48275757 2142.79333496 C1016.9796507 2137.9836622 1037.46942101 2133.14599375 1057.93334961 2128.19750977 C1058.90516678 2127.96251266 1059.87698395 2127.72751556 1060.87825012 2127.48539734 C1062.77540521 2127.02662791 1064.67253118 2126.56773806 1066.56962585 2126.10871887 C1071.8212528 2124.8414323 1077.07803991 2123.60052229 1082.34291077 2122.38943481 C1085.44814293 2121.67460512 1088.55100843 2120.94981489 1091.65371704 2120.22412109 C1093.04243323 2119.90248724 1094.43235048 2119.58598248 1095.82357788 2119.27539062 C1105.4655938 2117.12242895 1113.97622784 2114.80753994 1119.66015625 2106.16796875 C1123.05722819 2095.97675293 1118.84070867 2086.19138985 1114.34765625 2077.04296875 C1109.21900096 2066.89680549 1103.32575456 2057.16809202 1097.54980469 2047.3828125 C1094.4083241 2042.03823673 1091.3158394 2036.66559492 1088.22265625 2031.29296875 C1087.60132812 2030.21499023 1086.98 2029.13701172 1086.33984375 2028.02636719 C1083.81387082 2023.64375196 1081.28931293 2019.26032219 1078.76464844 2014.87695312 C1071.51982577 2002.30032955 1064.25282815 1989.73759918 1056.92944336 1977.20654297 C1052.01179743 1968.7859637 1047.13888517 1960.34000977 1042.2722168 1951.88989258 C1038.03079473 1944.53027959 1033.76032586 1937.18822008 1029.47265625 1929.85546875 C1024.59482687 1921.51129311 1019.76926846 1913.13926437 1014.9831543 1904.7421875 C1007.70852561 1891.98163437 1000.31754321 1879.28929416 992.91015625 1866.60546875 C984.80640539 1852.7277815 976.78539398 1838.80271946 968.76464844 1824.87695312 C961.51982577 1812.30032955 954.25282815 1799.73759918 946.92944336 1787.20654297 C942.00964343 1778.78227536 937.13493487 1770.33242979 932.265625 1761.87890625 C928.08666497 1754.62845385 923.88275119 1747.39308606 919.66015625 1740.16796875 C914.15987674 1730.75665528 908.70356387 1721.32069996 903.26342773 1711.87451172 C899.10889805 1704.66544935 894.92460246 1697.47447683 890.72265625 1690.29296875 C885.64731309 1681.61539791 880.63771019 1672.90183246 875.66015625 1664.16796875 C868.97178395 1652.43339847 862.19788177 1640.75079619 855.37353516 1629.09472656 C844.42851848 1610.39867926 833.57718045 1591.64987063 822.76464844 1572.87695312 C815.51982577 1560.30032955 808.25282815 1547.73759918 800.92944336 1535.20654297 C796.00964343 1526.78227536 791.13493487 1518.33242979 786.265625 1509.87890625 C782.08666467 1502.62845334 777.88267636 1495.39313012 773.66015625 1488.16796875 C765.63733947 1474.43750058 757.70157297 1460.65718789 749.76464844 1446.87695312 C742.51982577 1434.30032955 735.25282815 1421.73759918 727.92944336 1409.20654297 C723.00964343 1400.78227536 718.13493487 1392.33242979 713.265625 1383.87890625 C709.08666497 1376.62845385 704.88275119 1369.39308606 700.66015625 1362.16796875 C695.15987674 1352.75665528 689.70356387 1343.32069996 684.26342773 1333.87451172 C680.10889805 1326.66544935 675.92460246 1319.47447683 671.72265625 1312.29296875 C666.30084762 1303.02302838 660.95810651 1293.7096502 655.64093018 1284.3795166 C650.44051594 1275.25656304 645.18210848 1266.16912347 639.87890625 1257.10546875 C635.6113237 1249.80896706 631.37866669 1242.49294055 627.16015625 1235.16796875 C622.35170902 1226.81994427 617.5211853 1218.48548572 612.66015625 1210.16796875 C607.16070089 1200.75806545 601.70566429 1191.32326312 596.265625 1181.87890625 C592.08666497 1174.62845385 587.88275119 1167.39308606 583.66015625 1160.16796875 C578.16070089 1150.75806545 572.70566429 1141.32326312 567.265625 1131.87890625 C563.08666467 1124.62845334 558.88267636 1117.39313012 554.66015625 1110.16796875 C547.91302511 1098.62074389 541.22676255 1087.03894756 534.55126953 1075.45019531 C531.42335477 1070.02136933 528.29157177 1064.59477594 525.16015625 1059.16796875 C523.91013746 1057.00131292 522.66013747 1054.83464625 521.41015625 1052.66796875 C520.79140625 1051.59546875 520.17265625 1050.52296875 519.53515625 1049.41796875 C513.91015625 1039.66796875 513.91015625 1039.66796875 512.03466797 1036.41699219 C510.78644591 1034.25349399 509.53807386 1032.09008232 508.28955078 1029.92675781 C505.13610369 1024.46231858 501.98539529 1018.9963323 498.83984375 1013.52734375 C492.48047545 1002.47663817 486.0778513 991.45557346 479.5715332 980.49072266 C474.75392156 972.35838873 470.03091402 964.17289208 465.31640625 955.98046875 C461.12249916 948.69495458 456.90241459 941.42542554 452.66015625 934.16796875 C443.21938976 918.00955402 433.8642972 901.80186665 424.59765625 885.54296875 C419.81542748 877.15382511 414.96225212 868.80761197 410.08837891 860.47143555 C405.69141398 852.94713685 401.32447931 845.40595911 396.97265625 837.85546875 C396.34069336 836.75904053 395.70873047 835.6626123 395.05761719 834.53295898 C393.82709371 832.397818 392.59662326 830.26264645 391.36621094 828.12744141 C384.91364352 816.9342499 378.4262704 805.76177768 371.91015625 794.60546875 C366.32889152 785.04963217 360.79014803 775.46990781 355.26660156 765.88061523 C351.0873276 758.62958573 346.88300743 751.39369662 342.66015625 744.16796875 C334.63733947 730.43750058 326.70157297 716.65718789 318.76464844 702.87695312 C311.51982577 690.30032955 304.25282815 677.73759918 296.92944336 665.20654297 C292.01179743 656.7859637 287.13888517 648.34000977 282.2722168 639.88989258 C278.03079487 632.53027983 273.76035952 625.18820023 269.47265625 617.85546875 C265.16185693 610.48198573 260.88646998 603.09019942 256.66015625 595.66796875 C250.08140005 584.11652738 243.37167491 572.64261958 236.66015625 561.16796875 C226.29706107 543.44123968 216.01295852 525.67025811 205.76464844 507.87695312 C198.51982577 495.30032955 191.25282815 482.73759918 183.92944336 470.20654297 C179.00964343 461.78227536 174.13493487 453.33242979 169.265625 444.87890625 C165.08666467 437.62845334 160.88267636 430.39313012 156.66015625 423.16796875 C148.63733947 409.43750058 140.70157297 395.65718789 132.76464844 381.87695312 C125.51982577 369.30032955 118.25282815 356.73759918 110.92944336 344.20654297 C106.00881967 335.78086482 101.13290968 327.32982276 96.26342773 318.87451172 C92.10889805 311.66544935 87.92460246 304.47447683 83.72265625 297.29296875 C78.30084762 288.02302838 72.95810651 278.7096502 67.64093018 269.3795166 C62.44051594 260.25656304 57.18210848 251.16912347 51.87890625 242.10546875 C47.61132344 234.80896662 43.37872874 227.49290512 39.16015625 220.16796875 C34.3278979 211.78008583 29.47768395 203.40315648 24.59765625 195.04296875 C24.02909912 194.0686792 23.46054199 193.09438965 22.87475586 192.09057617 C19.89475767 186.98677488 16.90894564 181.88643758 13.91796875 176.7890625 C12.68606796 174.68627405 11.454295 172.5834107 10.22265625 170.48046875 C9.33682861 168.97226562 9.33682861 168.97226562 8.43310547 167.43359375 C5.3748428 162.20233201 2.46899032 156.94368374 -0.27734375 151.54296875 C-2.80844776 146.74921116 -5.55433413 142.88979706 -10.33984375 140.16796875 C-14.76256702 138.84983258 -19.06624074 138.98561827 -23.64624023 138.99462891 C-25.04199988 138.99736785 -25.04199988 138.99736785 -26.46595669 139.00016212 C-37.17069858 139.09191738 -47.78057204 139.9939879 -58.4375 140.94140625 Z M3105.45141602 934.35864258 C3104.21174875 934.5574501 3104.21174875 934.5574501 3102.9470377 934.76027393 C3092.77691916 936.42817766 3082.67079974 938.43117754 3072.55929756 940.41855812 C3066.26799478 941.65343351 3059.97389738 942.87387434 3053.67919922 944.09130859 C3053.02309996 944.21823251 3052.36700071 944.34515642 3051.69101965 944.47592652 C3036.61587688 947.38941289 3021.51829336 950.17908827 3006.4140625 952.9375 C3005.75360349 953.05814568 3005.09314448 953.17879135 3004.41267157 953.30309296 C2996.16850318 954.80870567 2987.9234088 956.30920587 2979.67787254 957.80730748 C2974.54854941 958.73927331 2969.41947202 959.67258215 2964.29052734 960.60662842 C2943.08192868 964.46882129 2921.87170974 968.32203778 2900.66015625 972.16796875 C2899.9687363 972.29333543 2899.27731634 972.41870211 2898.56494427 972.54786777 C2805.85506423 989.35710569 2713.12893692 1006.11002859 2587.60588837 1027.98783588 C2581.6544563 1029.01785802 2575.70506483 1030.05921495 2569.75656891 1031.10605145 C2566.38037608 1031.69846733 2563.00296855 1032.28082184 2559.62145996 1032.84216309 C2555.86882004 1033.4654861 2552.1199414 1034.10823438 2548.37109375 1034.75390625 C2547.29018463 1034.92612701 2546.20927551 1035.09834778 2545.09561157 1035.27578735 C2538.90808763 1036.36481993 2533.40471078 1037.83826652 2528.66015625 1042.16796875 C2526.43711879 1045.67556218 2526.40566656 1048.46122814 2527.01953125 1052.578125 C2529.84982104 1064.02008922 2537.96927632 1073.51380564 2544.875 1082.77392578 C2547.2327035 1085.93580223 2549.57008875 1089.11244427 2551.90820312 1092.28881836 C2553.08017941 1093.88036085 2554.25336534 1095.47101327 2555.42773438 1097.06079102 C2559.91808169 1103.14178047 2564.34963853 1109.26333221 2568.765625 1115.3984375 C2572.69407641 1120.84880713 2576.66720893 1126.26470891 2580.66015625 1131.66796875 C2585.74220703 1138.54500435 2590.77018422 1145.45829958 2595.765625 1152.3984375 C2599.69407641 1157.84880713 2603.66720893 1163.26470891 2607.66015625 1168.66796875 C2612.74220703 1175.54500435 2617.77018422 1182.45829958 2622.765625 1189.3984375 C2626.6940773 1194.84880837 2630.66730146 1200.26463953 2634.66015625 1205.66796875 C2641.93975139 1215.52191995 2649.10846138 1225.45371471 2656.26464844 1235.39746094 C2664.65098994 1247.0465736 2673.12865991 1258.62480244 2681.66015625 1270.16796875 C2691.28034111 1283.18413724 2700.8103278 1296.26038607 2710.26464844 1309.39746094 C2716.93249919 1318.6594907 2723.64692664 1327.88381768 2730.42944336 1337.06225586 C2734.91831988 1343.1434178 2739.35006438 1349.26392384 2743.765625 1355.3984375 C2747.69407641 1360.84880713 2751.66720893 1366.26470891 2755.66015625 1371.66796875 C2760.74220703 1378.54500435 2765.77018422 1385.45829958 2770.765625 1392.3984375 C2774.69407641 1397.84880713 2778.66720893 1403.26470891 2782.66015625 1408.66796875 C2787.74220703 1415.54500435 2792.77018422 1422.45829958 2797.765625 1429.3984375 C2801.69407657 1434.84880736 2805.66722453 1440.26469717 2809.66015625 1445.66796875 C2814.81160129 1452.63929142 2819.9107862 1459.64591178 2824.9765625 1466.6796875 C2828.34851835 1471.35930427 2831.74260271 1476.02156211 2835.16015625 1480.66796875 C2842.47005956 1490.61012925 2849.67317015 1500.629555 2856.8828125 1510.64453125 C2864.73304914 1521.5420013 2872.67741983 1532.36727794 2880.66015625 1543.16796875 C2888.15034031 1553.30223322 2895.61184113 1563.45418529 2902.97680664 1573.67993164 C2906.34860178 1578.35952474 2909.74266999 1583.02165359 2913.16015625 1587.66796875 C2920.47005956 1597.61012925 2927.67317015 1607.629555 2934.8828125 1617.64453125 C2941.00396729 1626.14137899 2947.17486242 1634.59855555 2953.39868164 1643.02050781 C2959.55148545 1651.35561666 2965.61151161 1659.75710722 2971.66015625 1668.16796875 C2978.07136026 1667.51204804 2984.14571481 1666.18964579 2990.39038086 1664.61791992 C2991.44344547 1664.35684228 2992.49651009 1664.09576464 2993.58148575 1663.82677555 C2997.07626008 1662.95919993 3000.56935837 1662.08506161 3004.0625 1661.2109375 C3006.54028531 1660.59452934 3009.01817766 1659.97855126 3011.49617004 1659.36297607 C3016.77614606 1658.05044886 3022.05543325 1656.73520614 3027.33410645 1655.41744995 C3035.66654225 1653.3374244 3044.00061463 1651.26400555 3052.33496094 1649.19165039 C3055.13016653 1648.49654218 3057.92536109 1647.80138957 3060.72055054 1647.10621643 C3061.4105747 1646.93460926 3062.10059887 1646.76300208 3062.81153286 1646.58619469 C3067.68765992 1645.3734235 3072.56356347 1644.15975644 3077.43936157 1642.94566345 C3097.98997718 1637.82869502 3118.54727877 1632.73937631 3139.11024857 1627.67229843 C3146.20537764 1625.92365009 3153.30000096 1624.17295087 3160.39453125 1622.421875 C3161.20173677 1622.2226475 3162.0089423 1622.02341999 3162.8406086 1621.81815529 C3186.21298483 1616.04876517 3209.57819585 1610.25042018 3232.94442749 1604.45620728 C3308.57400701 1585.70225181 3308.57400701 1585.70225181 3338.09765625 1578.41796875 C3338.81222363 1578.24165421 3339.526791 1578.06533966 3340.26301193 1577.88368225 C3364.38938238 1571.93167197 3388.53477071 1566.05922567 3412.68676758 1560.2121582 C3431.62037351 1555.62813069 3450.53512033 1550.97790414 3469.42196655 1546.20410156 C3480.987077 1543.28326941 3492.57098612 1540.46367512 3504.1875 1537.75390625 C3505.42469284 1537.46471313 3506.66188568 1537.17552002 3507.93656921 1536.87756348 C3513.94446546 1535.47476198 3519.95440294 1534.08200146 3525.96850586 1532.70605469 C3554.59817344 1527.09561438 3554.59817344 1527.09561438 3578.91015625 1512.16796875 C3581.0202573 1508.55065267 3581.73262716 1506.37128137 3581.66015625 1502.16796875 C3579.88826586 1496.27397226 3575.8427901 1491.65651975 3571.98828125 1486.98828125 C3569.38794603 1483.83821074 3566.86417234 1480.6350225 3564.34765625 1477.41796875 C3563.40376574 1476.21474968 3562.45975407 1475.01162564 3561.515625 1473.80859375 C3561.04302246 1473.20595703 3560.57041992 1472.60332031 3560.08349609 1471.98242188 C3557.77754747 1469.04283179 3555.46873864 1466.10549054 3553.16015625 1463.16796875 C3552.2434752 1462.00131339 3551.32680855 1460.83464671 3550.41015625 1459.66796875 C3549.95640625 1459.09046875 3549.50265625 1458.51296875 3549.03515625 1457.91796875 C3544.91015625 1452.66796875 3544.91015625 1452.66796875 3543.53540039 1450.91821289 C3542.61800616 1449.75066465 3541.70052558 1448.58318426 3540.78295898 1447.41577148 C3538.5017138 1444.51314085 3536.22194411 1441.60937601 3533.9453125 1438.703125 C3529.21402776 1432.66665827 3524.45787726 1426.65180802 3519.66015625 1420.66796875 C3512.80712893 1412.11843011 3506.02317466 1403.51638572 3499.31640625 1394.8515625 C3493.06247625 1386.77567631 3486.74520815 1378.76690563 3480.27832031 1370.86035156 C3476.12398199 1365.76982432 3472.10050726 1360.59307362 3468.11328125 1355.37109375 C3462.27819369 1347.73192115 3456.3014774 1340.20107944 3450.27709961 1332.71069336 C3445.50707692 1326.7791924 3440.82414183 1320.79380559 3436.22265625 1314.73046875 C3431.45017197 1308.44335092 3426.54187451 1302.28954904 3421.53540039 1296.18774414 C3417.07310243 1290.72801501 3412.79333183 1285.14300094 3408.53515625 1279.5234375 C3404.83587847 1274.65924292 3401.03635209 1269.89208243 3397.16015625 1265.16796875 C3392.14433644 1259.05493836 3387.31050065 1252.82551461 3382.53515625 1246.5234375 C3378.83587847 1241.65924292 3375.03635209 1236.89208243 3371.16015625 1232.16796875 C3366.71401609 1226.74923543 3362.39339174 1221.25459247 3358.16015625 1215.66796875 C3353.34044874 1209.30761254 3348.38338793 1203.08135781 3343.32641602 1196.90844727 C3340.01428031 1192.85771684 3336.76975553 1188.76668975 3333.59765625 1184.60546875 C3330.07731063 1179.98927361 3326.48981812 1175.43849964 3322.84765625 1170.91796875 C3318.55343577 1165.58506901 3314.36091065 1160.18515794 3310.22265625 1154.73046875 C3305.38095497 1148.35224914 3300.40243347 1142.1057303 3295.32885742 1135.91088867 C3291.15597081 1130.8066163 3287.11701826 1125.6154891 3283.1171875 1120.375 C3280.51613045 1116.96942752 3277.87323632 1113.5975731 3275.22265625 1110.23046875 C3274.76487793 1109.64894043 3274.30709961 1109.06741211 3273.83544922 1108.46826172 C3272.90756004 1107.29006735 3271.97949971 1106.11200776 3271.05126953 1104.93408203 C3268.75141393 1102.01425833 3266.45596099 1099.09097787 3264.16015625 1096.16796875 C3261.44679031 1092.71367838 3258.73290269 1089.25980824 3256.015625 1085.80859375 C3251.49584309 1080.06558717 3246.99159976 1074.31126646 3242.51196289 1068.53686523 C3237.52294452 1062.10607569 3232.5096883 1055.69909154 3227.41015625 1049.35546875 C3223.40685232 1044.37436323 3219.46389821 1039.35585077 3215.58007812 1034.28076172 C3212.04609258 1029.66292785 3208.48217963 1025.06893352 3204.91015625 1020.48046875 C3204.31734863 1019.71887451 3203.72454102 1018.95728027 3203.11376953 1018.17260742 C3201.90080944 1016.6145107 3200.68775539 1015.05648712 3199.47460938 1013.49853516 C3195.95066467 1008.97221975 3192.42915099 1004.44401119 3188.90893555 999.91479492 C3186.00963552 996.18516186 3183.10663829 992.45853677 3180.1953125 988.73828125 C3179.0375771 987.25665364 3177.88002536 985.7748825 3176.72265625 984.29296875 C3175.86244873 983.193479 3175.86244873 983.193479 3174.98486328 982.07177734 C3171.88623968 978.09326564 3168.84554307 974.08120024 3165.8671875 970.01171875 C3148.72655455 946.35129706 3148.72655455 946.35129706 3123.09765625 933.66796875 C3117.07710407 932.74975629 3111.43013385 933.38940707 3105.45141602 934.35864258 Z M2891.77734375 1862.34765625 C2879.05320683 1866.47314575 2866.16645091 1869.87189093 2853.22265625 1873.23046875 C2850.71411209 1873.88592202 2848.20565033 1874.54169069 2845.69726562 1875.19775391 C2827.90222972 1879.8431788 2810.0818759 1884.3884379 2792.25402832 1888.90609741 C2773.97263806 1893.53936124 2755.71568572 1898.26101632 2737.47265625 1903.04296875 C2736.81227482 1903.21604931 2736.15189339 1903.38912987 2735.4715004 1903.56745529 C2729.89746299 1905.02840268 2724.32351255 1906.48968186 2718.74969292 1907.95145988 C2698.78688014 1913.18681947 2678.81734206 1918.39639826 2658.84765625 1923.60546875 C2656.90409337 1924.11248759 2654.96053055 1924.61950663 2653.01696777 1925.12652588 C2621.92253119 1933.237777 2590.82381026 1941.33251515 2559.72265625 1949.41796875 C2558.1421303 1949.82886497 2558.1421303 1949.82886497 2556.52967453 1950.24806213 C2534.46354813 1955.98455059 2512.3967047 1961.71826896 2490.328125 1967.4453125 C2456.51478599 1976.22068344 2422.70781779 1985.01988539 2388.91015625 1993.85546875 C2387.51310644 1994.22067627 2387.51310644 1994.22067627 2386.0878334 1994.59326172 C2367.21797272 1999.52617704 2348.34889794 2004.46207579 2329.48234177 2009.40761566 C2323.18762538 2011.05758251 2316.89271487 2012.70680811 2310.59765625 2014.35546875 C2309.93023407 2014.53027267 2309.26281189 2014.7050766 2308.57516479 2014.88517761 C2290.60320891 2019.59157317 2272.61792534 2024.24124306 2254.61212158 2028.81643677 C2235.05790369 2033.78718471 2215.53565084 2038.87881463 2196.01531315 2043.98056126 C2192.24852029 2044.96502131 2188.48169299 2045.94934945 2184.71484375 2046.93359375 C2183.93923033 2047.13626799 2183.16361691 2047.33894222 2182.36450005 2047.5477581 C2168.46886028 2051.17830376 2154.56902998 2054.79261783 2140.66796875 2058.40234375 C2138.5669646 2058.94796822 2136.46596159 2059.49359711 2134.36495972 2060.03923035 C2131.17083505 2060.86873531 2127.97670981 2061.69823807 2124.78258324 2062.52773571 C2121.55426799 2063.36612264 2118.32595988 2064.20453709 2115.09765625 2065.04296875 C2114.03007835 2065.32022923 2112.96250046 2065.5974897 2111.86257172 2065.88315201 C2081.63775048 2073.7334045 2051.42692357 2081.63430053 2021.23352814 2089.60453415 C2000.31153906 2095.12713257 1979.37386769 2100.5756946 1958.39620972 2105.88394165 C1943.28885944 2109.70748097 1928.21637747 2113.64793673 1913.16015625 2117.66796875 C1896.54000761 2122.10534026 1879.89660998 2126.43719302 1863.22265625 2130.66796875 C1846.64864623 2134.87443621 1830.08313202 2139.11010463 1813.53515625 2143.41796875 C1812.51332245 2143.68396881 1811.49148865 2143.94996887 1810.43869019 2144.22402954 C1795.65208842 2148.07491255 1780.8702162 2151.9438664 1766.08837891 2155.81298828 C1764.17403046 2156.31406097 1764.17403046 2156.31406097 1762.2210083 2156.82525635 C1760.24901293 2157.34141806 1758.27702237 2157.85759808 1756.30504608 2158.3738327 C1728.59793796 2165.6271005 1700.87997088 2172.83843094 1673.16015625 2180.04296875 C1672.08314579 2180.32289169 1671.00613533 2180.60281464 1669.89648819 2180.89122009 C1661.26477726 2183.13463944 1652.6330421 2185.37796558 1644.00126839 2187.62114334 C1621.24698832 2193.53440443 1598.49459822 2199.45491137 1575.74291992 2205.37817383 C1573.57921555 2205.9414788 1571.41551112 2206.50478352 1569.25180626 2207.06808662 C1567.81957551 2207.44095904 1566.38734614 2207.81383677 1564.95511818 2208.18671989 C1552.58410795 2211.40749934 1540.21240464 2214.62561037 1527.84044456 2217.84273911 C1519.1350319 2220.10646427 1510.42989443 2222.37123214 1501.72583008 2224.64013672 C1500.98236108 2224.83392473 1500.23889208 2225.02771275 1499.47289371 2225.22737312 C1495.09301222 2226.36900549 1495.09301222 2226.36900549 1490.71317482 2227.51080704 C1482.69790262 2229.60029237 1474.68066995 2231.68175582 1466.6582489 2233.7436676 C1462.96978451 2234.69228603 1459.28275504 2235.64638908 1455.59603882 2236.60177612 C1453.99509013 2237.01497528 1452.39340159 2237.42532033 1450.79092407 2237.83255005 C1448.69333941 2238.36564242 1446.59840542 2238.90806051 1444.50390625 2239.453125 C1443.38177734 2239.7406665 1442.25964844 2240.02820801 1441.10351562 2240.32446289 C1438.50054376 2240.9042547 1438.50054376 2240.9042547 1437.66015625 2243.16796875 C1439.01863712 2245.93072198 1440.43910763 2248.56631147 1441.97265625 2251.23046875 C1442.66161987 2252.44766602 1442.66161987 2252.44766602 1443.36450195 2253.68945312 C1446.70617031 2259.56978425 1450.12089749 2265.40735935 1453.56689453 2271.22705078 C1457.37457562 2277.65931724 1461.11575521 2284.12898768 1464.84765625 2290.60546875 C1465.80309326 2292.26328369 1465.80309326 2292.26328369 1466.77783203 2293.95458984 C1468.73911494 2297.35875706 1470.699711 2300.76331907 1472.66015625 2304.16796875 C1480.53553093 2317.84233678 1488.42871669 2331.50534188 1496.39086914 2345.12939453 C1501.31066907 2353.55366214 1506.18537763 2362.00350771 1511.0546875 2370.45703125 C1515.23364753 2377.70748365 1519.43756131 2384.94285144 1523.66015625 2392.16796875 C1529.15961161 2401.57787205 1534.61464821 2411.01267438 1540.0546875 2420.45703125 C1544.23364753 2427.70748365 1548.43756131 2434.94285144 1552.66015625 2442.16796875 C1558.15961161 2451.57787205 1563.61464821 2461.01267438 1569.0546875 2470.45703125 C1573.23364753 2477.70748365 1577.43756131 2484.94285144 1581.66015625 2492.16796875 C1587.15961161 2501.57787205 1592.61464821 2511.01267438 1598.0546875 2520.45703125 C1602.23364767 2527.70748389 1606.43759581 2534.94283111 1610.66015625 2542.16796875 C1617.47043423 2553.82192553 1624.21479771 2565.51339572 1630.95410156 2577.20849609 C1637.99262972 2589.41814668 1645.07665341 2601.60073231 1652.18554688 2613.76953125 C1656.55841867 2621.26181321 1660.89563701 2628.77413256 1665.22265625 2636.29296875 C1670.33964898 2645.18200247 1675.51769016 2654.03149652 1680.75292969 2662.85131836 C1684.88247872 2669.82071685 1688.93637222 2676.83171542 1692.97265625 2683.85546875 C1698.19378021 2692.93983204 1703.48956751 2701.97651357 1708.84765625 2710.98046875 C1714.06011001 2719.74303629 1719.1967952 2728.54137994 1724.234375 2737.40551758 C1733.76272289 2754.1617705 1743.58408229 2770.75084908 1753.3359375 2787.37768555 C1760.13022267 2798.96305865 1766.8978427 2810.56390783 1773.66015625 2822.16796875 C1787.4138429 2845.77467223 1787.4138429 2845.77467223 1801.3046875 2869.30078125 C1802.65257272 2871.56887484 1804.00030921 2873.83705554 1805.34765625 2876.10546875 C1805.68938873 2876.6807431 1806.03112122 2877.25601746 1806.38320923 2877.84872437 C1811.3960936 2886.2925842 1816.33434223 2894.77618232 1821.22265625 2903.29296875 C1826.67504089 2912.78846241 1832.24865367 2922.20228618 1837.90356445 2931.57836914 C1842.63214148 2939.42796586 1847.2861828 2947.31905062 1851.91015625 2955.23046875 C1864.52457151 2976.80652268 1877.26396331 2998.31236987 1890.17822266 3019.71044922 C1891.2291382 3021.45320307 1892.27809357 3023.19713964 1893.32568359 3024.94189453 C1918.16083315 3069.77950365 1918.16083315 3069.77950365 1958.44140625 3098.7421875 C1967.7127264 3100.5213669 1976.43942251 3099.6636861 1985.2265625 3096.5 C1986.39550301 3096.09457977 1986.39550301 3096.09457977 1987.58805847 3095.68096924 C1989.95051548 3094.85691733 1992.30605797 3094.01557121 1994.66015625 3093.16796875 C1995.67003601 3092.80673416 1995.67003601 3092.80673416 1996.70031738 3092.4382019 C2000.59707704 3091.04140948 2004.48406298 3089.61882588 2008.36917114 3088.19000244 C2025.53387098 3081.89011159 2042.82653644 3075.98665369 2060.14855957 3070.13580322 C2075.53665259 3064.93808508 2090.89699179 3059.67195278 2106.22265625 3054.29296875 C2120.36552931 3049.33254511 2134.54280664 3044.4978041 2148.77050781 3039.78662109 C2161.02610536 3035.72652185 2173.25283092 3031.58442213 2185.47265625 3027.41796875 C2186.4641568 3027.07997253 2187.45565735 3026.74197632 2188.47720337 3026.39373779 C2193.53420538 3024.66963549 2198.59092006 3022.94469251 2203.64746094 3021.21923828 C2213.2960773 3017.92706202 2222.94682506 3014.64114549 2232.59765625 3011.35546875 C2233.55153229 3011.03066528 2234.50540833 3010.70586182 2235.4881897 3010.37121582 C2253.07096164 3004.38441495 2270.65993636 2998.41595841 2288.24996948 2992.45053101 C2304.22349978 2987.03316288 2320.19396894 2981.60693937 2336.16015625 2976.16796875 C2354.52429401 2969.91212295 2372.89475238 2963.6750429 2391.26754761 2957.44467163 C2403.23524454 2953.38620776 2415.20268451 2949.32705688 2427.1640625 2945.25 C2428.07872284 2944.93823822 2428.99338318 2944.62647644 2429.9357605 2944.30526733 C2431.77651319 2943.67780592 2433.6172623 2943.05033402 2435.45800781 2942.42285156 C2457.12481395 2935.03731009 2478.80928644 2927.70454005 2500.49636841 2920.3788147 C2519.57870198 2913.93287941 2538.65847321 2907.47994493 2557.72265625 2900.98046875 C2575.38244041 2894.96011005 2593.05041247 2888.96414085 2610.72265625 2882.98046875 C2611.70254265 2882.6486837 2611.70254265 2882.6486837 2612.70222473 2882.31019592 C2618.68929345 2880.28303243 2624.67642778 2878.25606274 2630.66363525 2876.22930908 C2639.81387848 2873.13180323 2648.96372785 2870.03313661 2658.11328125 2866.93359375 C2659.39293916 2866.50009636 2660.67259715 2866.06659925 2661.95225525 2865.63310242 C2663.87133541 2864.98299362 2665.7904154 2864.3328843 2667.70949459 2863.68277264 C2692.22247395 2855.37874521 2716.73710944 2847.07961773 2741.25259399 2838.7829895 C2762.33364674 2831.64862944 2783.4134724 2824.51065433 2804.49230957 2817.36975098 C2819.07342156 2812.43009985 2833.65514118 2807.4922546 2848.23828125 2802.55859375 C2849.63149616 2802.08723238 2851.02471007 2801.61586804 2852.41792297 2801.14450073 C2853.1070663 2800.91134218 2853.79620962 2800.67818363 2854.50623608 2800.43795967 C2855.89692325 2799.96744495 2857.28760992 2799.49692875 2858.67829609 2799.02641106 C2859.36539252 2798.79394236 2860.05248896 2798.56147366 2860.76040649 2798.32196045 C2861.44603794 2798.08998711 2862.13166939 2797.85801376 2862.83807755 2797.61901093 C2864.9029777 2796.92039745 2866.96789178 2796.22182512 2869.0328064 2795.52325439 C2888.22317475 2789.03081253 2907.40539566 2782.51476098 2926.58270264 2775.98382568 C2940.09990416 2771.38185269 2953.63192688 2766.82817365 2967.18389893 2762.32971191 C2985.20800144 2756.34443869 3003.17673752 2750.19747276 3021.14697266 2744.05273438 C3026.50877184 2742.21939447 3031.87145444 2740.38865039 3037.234375 2738.55859375 C3057.32436228 2731.70324472 3057.32436228 2731.70324472 3077.40625 2724.82421875 C3092.4292372 2719.66916561 3107.46102247 2714.54669464 3122.53515625 2709.54296875 C3138.64229456 2704.19600728 3154.71558131 2698.75158776 3170.78463745 2693.29135132 C3185.94314873 2688.14071151 3201.10495045 2683.0000985 3216.2734375 2677.87890625 C3217.06566208 2677.6114327 3217.85788666 2677.34395916 3218.67411804 2677.06838036 C3222.69906623 2675.70951889 3226.72406476 2674.35080657 3230.74908447 2672.99215698 C3262.98901466 2662.11057016 3262.98901466 2662.11057016 3295.19699097 2651.13485718 C3309.97634904 2646.0740103 3324.77162114 2641.06054551 3339.56900024 2636.05270386 C3343.62391886 2634.68034064 3347.67857913 2633.30721543 3351.7331543 2631.93383789 C3352.39200843 2631.71067052 3353.05086256 2631.48750315 3353.72968197 2631.25757313 C3357.00708422 2630.14742129 3360.28445738 2629.03718358 3363.56181335 2627.92689514 C3369.40807196 2625.94640271 3375.25456299 2623.96660698 3381.10205078 2621.98974609 C3423.01023295 2611.69603774 3423.01023295 2611.69603774 3454.66015625 2587.16796875 C3456.66017326 2569.45353235 3439.22964828 2552.07219333 3429.36132812 2538.51025391 C3427.71056068 2536.23736889 3426.06670249 2533.9596886 3424.42578125 2531.6796875 C3418.30129948 2523.17060881 3412.12152805 2514.70531845 3405.89086914 2506.27368164 C3401.40416865 2500.19546761 3396.97421827 2494.07817861 3392.5612793 2487.94628906 C3388.57009595 2482.40819648 3384.53044486 2476.90740139 3380.47265625 2471.41796875 C3376.08724649 2465.48476731 3371.75000817 2459.5231886 3367.48095703 2453.50585938 C3363.40544199 2447.77739586 3359.22185659 2442.12981986 3355.04296875 2436.4765625 C3351.04699375 2431.06516655 3347.0896176 2425.62782031 3343.16015625 2420.16796875 C3336.40040024 2410.78010341 3329.53598187 2401.47100253 3322.66015625 2392.16796875 C3315.23955952 2382.12785635 3307.84819586 2372.06999367 3300.55444336 2361.93725586 C3296.62616745 2356.48689938 3292.65303589 2351.07113701 3288.66015625 2345.66796875 C3284.12264614 2339.52780606 3279.62049049 2333.36442214 3275.16015625 2327.16796875 C3268.97931762 2318.58425284 3262.71229766 2310.06595367 3256.42626953 2301.55908203 C3252.91703002 2296.80797728 3249.41554349 2292.05115584 3245.91259766 2287.29541016 C3242.98594876 2283.32265386 3240.05744851 2279.35129029 3237.125 2275.3828125 C3230.88605945 2266.93539742 3224.68956628 2258.46038466 3218.55444336 2249.93725586 C3214.62616745 2244.48689938 3210.65303589 2239.07113701 3206.66015625 2233.66796875 C3201.57810547 2226.79093315 3196.55012828 2219.87763792 3191.5546875 2212.9375 C3187.04743912 2206.68410213 3182.47704527 2200.47875596 3177.89501953 2194.2800293 C3173.90365226 2188.87378273 3169.95789864 2183.43666284 3166.03515625 2177.98046875 C3161.42241812 2171.56602147 3156.72269539 2165.22505945 3151.96386719 2158.91845703 C3148.42711452 2154.22029548 3144.98711167 2149.46234351 3141.58691406 2144.66479492 C3136.2714488 2137.18217455 3130.79111504 2129.82016988 3125.33691406 2122.43847656 C3118.95773805 2113.80039605 3112.62499528 2105.13033663 3106.34765625 2096.41796875 C3099.52296377 2086.94858118 3092.59785907 2077.55472275 3085.66015625 2068.16796875 C3077.1298624 2056.62642941 3068.65373043 2045.04966241 3060.26904297 2033.40185547 C3057.57003507 2029.65437106 3054.86484131 2025.91135674 3052.16015625 2022.16796875 C3048.91884172 2017.68186496 3045.67873671 2013.19492044 3042.4453125 2008.703125 C3036.89211001 2000.99333902 3031.3057842 1993.31039244 3025.66015625 1985.66796875 C3019.47004506 1977.28848417 3013.35541316 1968.85689512 3007.26904297 1960.40185547 C3004.57003497 1956.65437091 3001.86476741 1952.9114103 2999.16015625 1949.16796875 C2998.07679321 1947.66799021 2996.99345987 1946.16799021 2995.91015625 1944.66796875 C2995.37390625 1943.92546875 2994.83765625 1943.18296875 2994.28515625 1942.41796875 C2992.66015625 1940.16796875 2991.03515625 1937.91796875 2989.41015625 1935.66796875 C2988.87398682 1934.92562988 2988.33781738 1934.18329102 2987.78540039 1933.41845703 C2986.70106312 1931.91696672 2985.61691626 1930.41533888 2984.53295898 1928.91357422 C2981.84152283 1925.18523027 2979.14692385 1921.4592601 2976.4453125 1917.73828125 C2967.47641604 1905.37409454 2958.60464307 1892.93428777 2950.0234375 1880.296875 C2939.02446834 1864.10160205 2939.02446834 1864.10160205 2921.66015625 1856.16796875 C2911.46168282 1855.6839734 2901.34140962 1859.17715321 2891.77734375 1862.34765625 Z " fill="#E7432F" transform="translate(1133.33984375,133.83203125)"/>
</svg>
